<?xml version="1.0" encoding="utf-8"?>
<svg viewBox="13.797 270.273 402.098 35.185" xmlns="http://www.w3.org/2000/svg">
  <g transform="matrix(0.657601, 0, 0, 1.17919, -2.969283, -40.073227)" style="">
    <g transform="translate(0 -308.27)">
      <path d="M 82.12 599.28 C 101.625 600.027 119.491 597.253 139.037 597.986 C 151.968 598.644 164.469 598.079 177.692 597.339 C 192.147 597.116 207.326 598.088 220.678 596.044 C 227.071 592.363 238.347 594.279 246.227 592.808 C 257.108 593.124 267.628 590.57 278.4 593.455 C 299.427 593.284 319.926 593.563 339.906 596.044 C 353.405 597.397 367.164 598.355 381.541 598.634 C 390.32 597.722 395.856 595.24 407.09 596.044 C 414.959 594.681 430.218 598.338 434.532 594.102 C 445.376 590.958 459.305 589.839 471.435 592.161 C 485.619 592.081 623.71 591.996 636.958 593.455 L 636.958 594.102 L 636.958 571.456 L 25.496 571.456 L 25.496 601.222 C 47.434 601.467 61.783 601.152 82.121 599.28 Z" style="fill: rgb(232, 215, 37);"/>
    </g>
  </g>
</svg>