<?xml version="1.0" encoding="utf-8"?>
<svg viewBox="96.665 149.304 72.245 73.03" xmlns="http://www.w3.org/2000/svg">
  <defs>
    <view id="view-1" viewBox="290.899 236.608 2.167 5.417">
      <title>View 1</title>
    </view>
  </defs>
  <g transform="matrix(0.548223, 0, 0, 0.578656, -27.998034, 120.299095)" style="">
    <g transform="translate(0 -308.27)">
      <path d="m294.13 484.44c0-0.077-0.17656-0.23491-0.39234-0.35125-0.72095-0.38825-1.3272-1.3632-1.7789-2.8612-0.86942-2.8827-1.0495-4.3498-1.0526-8.5731-2e-3 -4.2386 0.24719-6.9811 0.92225-10.112 0.38571-1.7887 1.1651-3.61 1.8071-4.2235 0.49709-0.47502 0.8721-0.50611 1.6492-0.13655 1.7233 0.81905 2.9611 3.2934 3.6796 7.3556 0.3006 1.7008 0.3662 6.4471 0.12576 9.0949-0.19308 2.125-0.76306 4.8126-1.3398 6.3199-0.58621 1.5322-1.5879 3.0047-2.1377 3.1427-0.141 0.0357-0.34261 0.15898-0.44707 0.27443-0.22205 0.24519-1.0352 0.30028-1.0352 0.07zm-31.108-6.867c-0.63024-0.631-0.76537-1.054-0.76359-2.3906 2e-3 -1.8875 0.38283-3.5059 1.7606-7.4874 0.41351-1.1948 2.6979-5.7998 3.4104-6.8742 1.5263-2.302 2.9868-4.0483 4.323-5.1692 2.3166-1.9432 4.3103-1.4172 4.805 1.2676 0.33804 1.8358-0.58334 5.7508-2.1517 9.1406-1.3879 2.9997-1.9315 3.9502-4.0546 7.0893-1.0101 1.4936-3.2977 3.8434-4.1583 4.2716-0.26146 0.12971-0.64695 0.33476-0.85757 0.45527-0.27273 0.15641-0.58505 0.21906-1.0873 0.21906-0.69388 0-0.71219-9e-3 -1.2258-0.5221zm61.004-1.4807c-0.21147-0.0678-0.6525-0.29797-0.9798-0.51177-0.7491-0.48903-3.4554-3.1574-4.5284-4.4648-0.44646-0.54406-0.86124-1.0461-0.92169-1.1157-0.18919-0.21767-1.4624-2.0312-2.0719-2.951-1.8013-2.7183-3.9105-7.2425-4.9631-10.645-0.39484-1.2766-0.41867-2.6028-0.0613-3.4232 0.33011-0.75875 1.3315-1.751 2.1853-2.1658 0.65274-0.31719 0.75024-0.33377 1.628-0.27903 1.0593 0.0661 1.8028 0.3713 2.9535 1.2123 1.3914 1.017 3.3883 3.5786 4.9634 6.3672 0.60361 1.0686 1.2466 2.3289 1.2466 2.4434 0 0.0298 0.34131 0.7666 0.75868 1.6398 0.41726 0.87314 0.79301 1.6957 0.83495 1.8279 0.0418 0.1321 0.21768 0.52546 0.39072 0.87386 0.17289 0.3484 0.50937 1.0768 0.74784 1.6187 0.23858 0.54183 0.60506 1.3527 0.81466 1.8019 1.546 3.3131 1.6748 3.6558 1.6703 4.4438-2e-3 0.78077-0.31688 1.3917-1.1438 2.236-0.97079 0.99135-2.4282 1.443-3.5237 1.0919zm-83.368-22.829c-0.63135-0.17955-1.2544-0.55964-1.548-0.94456-0.25847-0.33876-0.28734-0.45576-0.23126-0.93074 0.0872-0.73314 0.70714-1.8149 1.5765-2.749 0.14084-0.15126 0.44165-0.47368 0.6689-0.71677 1.0681-1.1428 3.8995-3.3617 5.2492-4.1136 0.36251-0.20207 0.92496-0.53987 1.2495-0.75057 1.3998-0.90909 3.8028-1.9741 5.2902-2.3445 1.0139-0.25251 2.278-0.26943 2.8323-0.0378 0.49687 0.20778 0.90473 0.57558 0.90473 0.81626 0 0.0982 0.0558 0.23424 0.12405 0.30226 0.076 0.076 0.10519 0.37853 0.0763 0.7836-0.13244 1.8327-2.6923 4.7767-6.1546 7.0782-3.42 2.2735-6.3804 3.4964-8.8282 3.6468-0.48359 0.0298-1.0277 0.0137-1.209-0.0397zm40.612-1.373c-5.6362-0.63952-10.371-2.6106-14.453-6.017-0.94447-0.78797-3.7844-3.7123-4.4658-4.5984-3.1074-4.0411-4.7603-8.3869-5.4347-14.288-0.20366-1.7812-0.17078-6.1878 0.0583-7.9137 0.26809-2.0151 0.46602-3.2684 0.60807-3.8469 0.0818-0.33249 0.20436-0.90129 0.27273-1.264 0.0685-0.3627 0.24389-1.0552 0.3895-1.5388 0.14562-0.48361 0.31653-1.0838 0.37947-1.3336 0.25183-0.99693 1.0502-2.9432 1.9784-4.8215 1.8914-3.8277 4.3107-6.9843 7.7605-10.126 1.9642-1.7885 2.3542-2.1296 2.4361-2.1302 0.0456-3.4e-4 0.35543-0.26048 0.68792-0.57799 0.64625-0.61717 1.9043-1.6036 3.0058-2.3568 0.37206-0.25418 0.82118-0.5758 0.99836-0.71442 0.80034-0.62617 2.4722-1.6588 3.4997-2.1617 1.3373-0.65446 1.8155-0.8231 3.0266-1.067 0.7852-0.15827 1.0316-0.16496 1.7586-0.0481 1.2398 0.1993 2.0686 0.6125 2.6699 1.331 0.66183 0.79086 0.87016 1.3702 0.94504 2.628 0.15658 2.6286-0.66804 5.1482-2.3352 7.1364-0.99395 1.1853-1.2311 1.4008-2.2478 2.0424-3.2325 2.04-6.8502 5.596-8.9457 8.7932-0.35584 0.54323-0.78875 1.1993-0.9617 1.458-0.1729 0.25878-0.31456 0.48904-0.31456 0.51194 0 0.0233-0.2287 0.52837-0.50787 1.1234-1.9114 4.0717-2.731 7.532-2.7291 11.523 1e-3 3.948 0.77494 6.8067 2.6753 9.892 0.98946 1.6065 1.9885 2.7555 3.9658 4.5614 0.40108 0.36603 2.0965 1.4329 3.0402 1.9128 3.7728 1.9185 9.0294 2.439 14.014 1.3876 0.94698-0.19977 1.3289-0.29896 2.5686-0.66716 0.97085-0.28835 3.3695-1.3352 4.5638-1.9918 3.7405-2.0565 7.6749-5.4589 10.02-8.6649 2.1569-2.9491 3.3761-5.4267 4.6513-9.4524 0.22995-0.72554 0.58131-2.7088 0.76931-4.3408 0.19975-1.7329 0.20228-3.1195 7e-3 -4.7352l-0.14511-1.2174-0.60523-0.81836c-0.33265-0.45009-1.0498-1.2646-1.5931-1.81-4.1042-4.1198-9.3435-4.9624-15.614-2.5108-3.5062 1.3709-6.4129 3.2278-7.9438 5.0751-1.205 1.4539-1.7361 2.6696-1.9097 4.3719-0.13432 1.3184 0.31389 3.232 1.1424 4.875 0.56357 1.1177 0.89808 1.5142 2.0518 2.4321 1.1248 0.89484 1.9152 1.3684 2.451 1.4683 0.49533 0.0923 0.88753-0.24786 0.88753-0.7698 0-0.5325-0.48895-1.9854-1.1664-3.466-1.0993-2.4023-1.1925-3.5331-0.39818-4.8318 0.7663-1.2532 2.4374-2.3155 4.1476-2.6364 1.0373-0.19471 3.9843-0.0604 5.001 0.228 1.4222 0.40329 2.5085 1.0134 3.488 1.9593 1.0139 0.97914 1.4826 1.6189 2.0292 2.7704 0.62252 1.3112 0.79632 2.147 0.78837 3.7919-2e-3 1.1538-0.0624 1.6521-0.29365 2.5883-0.15743 0.63766-0.36293 1.3054-0.45585 1.4838-0.093 0.17863-0.16924 0.38382-0.16992 0.45644-1e-3 0.29066-0.94349 2.2446-1.5966 3.3118-0.65625 1.0722-2.1462 2.8456-2.6673 3.1747-0.16394 0.10353-0.50145 0.36306-0.75003 0.57679-1.1204 0.96314-3.1765 1.865-5.2745 2.3137-1.5851 0.33896-6.8809 0.44022-8.7177 0.1665-2.6067-0.38811-3.3871-0.78763-4.9481-2.5329-1.1168-1.2487-3.0721-5.1299-4.4567-8.8465-0.61257-1.6444-0.80962-2.439-0.95356-3.8464-0.16462-1.6106-0.0638-2.9849 0.34716-4.7267 0.46007-1.9501 1.9757-4.9036 3.4881-6.7971 0.25783-0.32283 0.46915-0.61968 0.46942-0.65946 3.2e-4 -0.0397 0.16101-0.2482 0.35712-0.46336 0.19608-0.21492 0.52405-0.58601 0.72865-0.82434 1.4024-1.6339 3.9565-4.0416 5.5755-5.256 0.36952-0.27706 0.7341-0.57899 0.81031-0.67084 0.0762-0.0918 0.18393-0.16701 0.2389-0.16701 0.0551 0 0.41577-0.24155 0.80121-0.53706 1.0987-0.84216 3.9366-2.3812 5.5562-3.0133 2.9463-1.1499 5.4484-1.5773 8.605-1.4699 2.0353 0.0694 3.2226 0.25151 5.3537 0.82207 2.8671 0.76755 6.1436 2.5017 8.404 4.448 0.89832 0.77347 2.4432 2.4375 2.5368 2.7323 0.0372 0.11276 0.10971 0.20527 0.16461 0.20527 0.0907 0 1.1876 1.5517 1.671 2.3631 0.60168 1.0098 1.2193 2.7148 1.4931 4.1217 0.0647 0.33249 0.19449 1.0002 0.28768 1.4838 0.49759 2.5692 0.71961 7.606 0.51112 11.596-0.21974 4.2069-0.74051 6.4771-2.1554 9.3975-2.061 4.2543-5.4653 7.9367-10.4 11.25-0.64304 0.43173-1.2204 0.78498-1.283 0.78498-0.0626 0-0.25384 0.11499-0.4246 0.25616-0.7593 0.62574-5.3498 3.02-7.2905 3.8024-0.51358 0.2071-1.1564 0.474-1.4284 0.59319-1.2343 0.54072-6.1204 2.0529-6.6333 2.0529-0.11944 0-0.46853 0.0726-0.7761 0.16171-0.84415 0.24389-3.4782 0.70044-5.4805 0.95026-2.2764 0.28402-6.4146 0.36522-8.2132 0.1612zm65.837-0.34501c-0.57431-0.27507-1.3904-0.65591-1.8136-0.84653-2.3556-1.061-8.0365-4.1157-10.991-5.9101-0.48361-0.29366-1.2255-0.73687-1.6487-0.98484-0.42309-0.24786-1.0519-0.63401-1.3973-0.85788-0.3455-0.22387-1.0626-0.67734-1.5937-1.0077-2.0868-1.2979-2.5984-1.7506-3.1087-2.7508-0.21628-0.4246-0.24057-0.59882-0.18874-1.3584 0.0438-0.64366 0.11945-0.95232 0.289-1.1813 0.12612-0.17061 0.22939-0.386 0.22939-0.47897 0-0.27905 0.77266-1.0462 1.3669-1.3572 0.51698-0.27042 0.6542-0.29098 1.9305-0.28768 1.506 2e-3 2.1179 0.12884 3.7477 0.76525 2.3562 0.92027 4.8566 2.3565 8.0789 4.6403 2.2675 1.6071 3.6013 2.572 4.2205 3.0532 0.49947 0.38813 1.2846 0.93639 2.6929 1.8806 1.5192 1.0186 2.0886 1.5506 2.3272 2.1745 0.51243 1.3395-0.53397 4.3771-1.6716 4.8524-0.69469 0.29033-1.3275 0.20205-2.4692-0.34483zm-107.77-28.69c-3.1375-0.23592-5.9389-0.72215-7.474-1.2974-0.3625-0.13588-0.92986-0.33612-1.2604-0.44477-0.90863-0.29862-2.096-1.0639-2.5044-1.6137-0.19677-0.26479-0.43154-0.55967-0.52203-0.65541-0.18347-0.19404-0.22158-0.71185-0.0599-0.81185 0.0571-0.0357 0.25946-0.37934 0.44882-0.76392 0.41955-0.85218 1.1064-1.4458 2.3582-2.0379 0.84365-0.39906 2.2724-0.89514 2.9687-1.0308 0.18117-0.0351 0.67591-0.13963 1.0991-0.23195 1.573-0.34292 4.3591-0.52649 6.8145-0.44896 2.2007 0.0693 2.9084 0.12817 4.7812 0.39525 3.2806 0.46811 6.2092 1.6124 7.2056 2.8156 0.74512 0.89963 0.8493 1.3403 0.5349 2.2629-0.59722 1.7527-3.514 3.1122-7.8194 3.6448-1.3115 0.16239-5.476 0.30063-6.5708 0.21837zm96.627-0.75399c-0.8274-0.2389-2.7607-1.2401-3.4-1.7609-1.0069-0.82024-1.3854-1.8378-1.0141-2.7265 0.30294-0.72461 1.8437-1.7873 3.3555-2.3141 0.27207-0.0948 0.76664-0.27641 1.0991-0.4035 0.71082-0.27173 3.3093-1.0588 4.1766-1.265 1.6559-0.39369 2.235-0.51934 3.2973-0.71544 3.5231-0.65032 7.634-1.116 11.266-1.2761 1.9458-0.0859 2.5979 0.0697 3.2935 0.78549 0.47203 0.48568 0.82818 1.3202 0.82818 1.9406 0 0.17795 0.0416 0.29831 0.0909 0.26776 0.12954-0.0797 0.16256 1.0244 0.0375 1.1788-0.0582 0.0707-0.18759 0.41217-0.28835 0.75927-0.29861 1.0315-0.86318 1.4424-3.0331 2.208-1.9098 0.67379-7.2459 1.9828-9.4996 2.3305-0.60453 0.0933-1.2476 0.21491-1.4289 0.27043-0.29397 0.09-1.1272 0.23161-3.9018 0.66351-1.3216 0.20572-4.2436 0.23989-4.8766 0.0571zm-82.393-21.605c-0.51385-0.1126-1.4536-0.38392-2.0883-0.60298-1.3931-0.48072-4.5663-2.0237-5.7463-2.7941-0.47035-0.30723-0.88082-0.55838-0.91206-0.55838-0.0989 0-1.7463-1.1216-3.1237-2.1269-1.9029-1.3887-4.7411-4.1116-5.9402-5.6987-1.2325-1.6314-1.8429-3.4083-1.3571-3.9505 0.19241-0.21493 0.28401-0.22731 1.2521-0.16718 2.2029 0.13706 7.2627 1.882 11.266 3.8854 2.4708 1.2366 4.3085 2.2562 5.3856 2.9881 0.48363 0.32851 1.1598 0.78659 1.5025 1.0177 0.76861 0.51829 2.249 1.764 2.6192 2.204 0.15092 0.17956 0.45533 0.52542 0.67607 0.76844 0.51878 0.57128 1.065 1.6598 1.1489 2.2897 0.1523 1.1426-0.46352 2.1595-1.6052 2.6507-0.86632 0.37271-1.6928 0.39808-3.0776 0.0946zm70.698-3.2983c-0.9403-0.19448-2.3638-1.1826-2.7337-1.8978-0.24519-0.47406-0.21926-1.2911 0.0583-1.8657 0.4389-0.90661 2.3115-2.7756 4.5112-4.5026 0.89962-0.70629 6.1043-4.2263 9.0272-6.1054 1.6054-1.032 2.5398-1.3981 3.2864-1.2877 0.53668 0.0793 1.543 0.47045 1.543 0.59953 0 0.0431 0.11774 0.13244 0.26212 0.19815 0.28535 0.12988 1.1265 1.17 1.4411 1.7815 0.11157 0.21675 0.19701 0.62098 0.19701 0.93425 1e-3 0.90817-0.32851 1.4616-1.6554 2.7774-1.2721 1.2614-3.1303 2.9831-3.7079 3.4355-0.19288 0.1511-0.74158 0.58314-1.2192 0.96003-1.6266 1.2836-1.9674 1.5377-2.9567 2.2043-3.0278 2.0404-6.2379 3.1438-8.054 2.7685zm-55.2-11.177c-0.79797-0.29262-1.2494-0.63084-2.6468-1.982-1.3692-1.3238-1.8853-1.8796-3.1389-3.3807-0.42806-0.51258-1.3752-1.8052-1.812-2.473-0.49322-0.75408-1.415-2.381-1.4146-2.4967 1.9e-4 -0.0475-0.0961-0.28403-0.21446-0.52593-0.70707-1.4468-1.303-3.5144-1.5522-5.3857-0.31557-2.3711 0.13843-5.9269 1.0219-7.9975 0.27273-0.63912 0.56034-0.74601 1.2185-0.45247 0.63856 0.28467 3.108 2.7844 3.4074 3.449 0.0416 0.0906 0.27575 0.4369 0.5214 0.76939 0.43965 0.59442 0.80149 1.1394 1.8058 2.7203 2.323 3.6565 4.5781 9.1804 5.3957 13.217 0.46188 2.2804 0.49202 2.5778 0.3192 3.1585-0.31422 1.0587-0.88664 1.4635-2.0483 1.4491-0.38368-2e-3 -0.77203-0.036-0.86271-0.0688zm28.878-0.70001c-1.74-0.41496-2.6986-1.9131-2.9131-4.5528-0.10287-1.2668 0.0207-6.183 0.18943-7.474 0.49545-3.8128 0.80816-5.3594 1.6004-7.9162 1.272-4.1051 2.2062-5.8267 3.5076-6.4639 0.33678-0.16479 0.61246-0.34783 0.61246-0.40642 0-0.16239 0.71168-0.12714 1.0628 0.0528 0.17077 0.0878 0.65737 0.31289 1.0806 0.50069 0.42314 0.18782 0.95696 0.52389 1.1863 0.74696 0.4176 0.40613 0.95698 1.3832 0.95698 1.7335 0 0.10265 0.0583 0.38222 0.12988 0.62154 0.2452 0.81868-0.214 7.328-0.73499 10.417-0.0972 0.57428-0.22387 1.3409-0.28203 1.7036-0.32252 2.0057-1.2369 5.6444-1.5888 6.325-0.0893 0.17245-0.16239 0.40715-0.16239 0.52142 0 0.25518-0.56511 1.4238-1.0474 2.1663-0.40811 0.62818-1.394 1.5977-1.8717 1.8405-0.43508 0.22089-1.2206 0.30492-1.7264 0.18437zm-4.5588 98.627c-0.75453-0.7155-1.1737-1.4699-1.6037-2.886-0.81208-2.6745-0.98567-4.1652-0.9854-8.4624 4e-4 -4.2936 0.26014-7.0583 0.97031-10.318 0.49512-2.2738 1.4935-4.1716 2.3136-4.398 0.59704-0.16496 1.4897 0.17219 2.2043 0.83253 1.8932 1.7492 3.1213 6.3617 3.1162 11.705-2e-3 5.8935-1.2381 11.291-3.0036 13.152-0.64204 0.67681-1.2395 1.0079-1.8189 1.0079-0.49026 0-0.57208-0.0434-1.1928-0.632zm-29.581-5.7434c-0.69811-0.1641-1.3258-0.8263-1.5506-1.6352-0.25848-0.93059-0.0567-3.2772 0.44105-5.1356 0.69116-2.579 1.431-4.5055 2.7605-7.1874 2.0112-4.0571 3.8988-6.6996 6.1411-8.5968 2.0496-1.7342 3.7682-1.7115 4.7047 0.062 1.2023 2.2771-0.2389 7.9399-3.5074 13.781-3.1726 5.67-6.8346 9.2188-8.9894 8.7117zm60.152-2.0254c-0.79037-0.26112-1.3716-0.71576-3.1581-2.4702-2.3122-2.2708-3.9269-4.2829-5.689-7.0889-1.5517-2.4711-3.725-7.1892-4.6001-9.9864-0.27806-0.8883-0.33554-1.2572-0.33554-2.1433 9e-5 -0.9495 0.0375-1.1448 0.31355-1.7298 0.39984-0.84106 1.2296-1.6198 2.1896-2.055 0.66846-0.30325 0.81428-0.32882 1.6257-0.28635 1.843 0.0968 3.6064 1.3046 5.504 3.7701 1.0264 1.3335 2.9795 4.5248 3.527 5.7629 0.14904 0.33659 0.42115 0.93343 0.60524 1.3264 0.18416 0.39296 0.95266 2.0746 1.7081 3.737 3.382 7.4424 3.2808 7.1868 3.1685 8.0066-0.1463 1.0689-1.2525 2.4047-2.4418 2.9492-0.73471 0.33634-1.7609 0.42451-2.4172 0.20778zm-83.49-22.858c-0.64803-0.1745-1.2939-0.61557-1.5595-1.0652-0.37123-0.62829-0.0791-1.7284 0.74163-2.7924 1.6292-2.1126 3.9974-4.1235 7.0711-6.0045 1.8733-1.1464 2.7447-1.6019 4.2085-2.1998 1.5812-0.64584 2.3111-0.80755 3.647-0.80807 1.1449-4.2e-4 1.1809 7e-3 1.5937 0.33913 1.2276 0.98686 1.0619 2.4499-0.51456 4.5463-2.719 3.6155-8.8076 7.3518-13.077 8.0244-0.91525 0.14441-1.4659 0.13363-2.1112-0.0397zm41.13-1.2914c-4.9483-0.45804-9.3437-2.0666-13.211-4.8346-5.6232-4.0253-9.368-9.4854-10.845-15.812-0.69717-2.9871-0.82672-4.2209-0.83075-7.9136-2e-3 -1.9835 0.0493-3.6265 0.13245-4.2316 0.0746-0.544 0.1908-1.4096 0.25748-1.9234 0.14562-1.1132 0.77851-4.1394 1.0918-5.2208 1.5108-5.2161 4.0838-9.77 7.7868-13.782 1.2233-1.3255 4.9482-4.6993 6.2623-5.6722 0.16376-0.12081 0.64105-0.49498 1.0616-0.83126 0.42057-0.33629 1.1109-0.85213 1.5341-1.1464 0.42312-0.29429 1.1526-0.8006 1.621-1.1252 1.0692-0.74098 3.3701-1.9283 4.284-2.2105 1.3531-0.4179 2.2395-0.50484 3.2255-0.3162 1.1306 0.21629 1.8524 0.55673 2.4233 1.1434 0.78628 0.80799 1.1409 1.8458 1.1409 3.3393 0 2.3142-0.76816 4.7279-2.0202 6.3479-0.74145 0.95939-1.7519 1.9458-2.3397 2.2841-2.8929 1.6648-6.68 5.2825-8.9632 8.5621-2.8336 4.0703-4.5614 9.185-4.7713 14.124-0.20366 4.7852 1.1188 8.9235 3.9916 12.494 2.5725 3.1973 5.9705 5.2636 9.9811 6.0693 5.4356 1.092 11.171 0.18921 16.412-2.5838 3.9078-2.0675 8.007-5.6405 10.641-9.2752 1.7664-2.437 3.2638-5.5417 4.144-8.5916 0.90681-3.1424 1.2275-6.297 0.93422-9.19-0.14031-1.3855-0.16546-1.4399-1.2749-2.8027-2.1863-2.6847-5.2322-4.4869-8.3252-4.9255-1.054-0.14921-3.2828-0.067-4.4618 0.1653-3.2409 0.63838-6.9633 2.2842-9.6164 4.2519-1.9367 1.4364-3.2799 3.2121-3.7332 4.9355-0.43517 1.6544-0.16461 3.798 0.71674 5.6795 0.62277 1.3294 1.007 1.8208 2.1256 2.7185 1.1861 0.95192 2.0057 1.4543 2.5343 1.5535 0.33048 0.062 0.40564 0.0332 0.57272-0.22204 0.34013-0.51908 0.14373-1.1895-1.4514-4.9484-0.38777-0.91353-0.4197-1.0691-0.41943-2.0334 2.2e-4 -0.91738 0.0372-1.1124 0.29365-1.6062 0.39773-0.76243 1.5915-1.8344 2.5629-2.3016 1.2196-0.58656 2.2145-0.74631 4.2266-0.6786 2.0443 0.0686 3.0112 0.28967 4.4695 1.0201 3.0694 1.5379 4.986 5.2511 4.5645 8.8436-0.25914 2.2078-1.0635 4.5133-2.3193 6.647-1.2891 2.1901-3.3735 4.2051-5.4084 5.2282-2.3225 1.1677-4.367 1.5244-8.7661 1.5296-3.4952 2e-3 -5.6479-0.36301-6.9385-1.183-1.2209-0.77567-2.824-3.0276-4.1374-5.8121-1.3262-2.8114-2.4402-5.7298-2.7515-7.2077-0.27208-1.2908-0.2691-3.8753 2e-3 -5.1938 0.81728-3.9232 3.1177-7.6556 7.2147-11.706 3.9986-3.9527 8.1062-6.6403 12.308-8.0532 2.4388-0.82003 4.5613-1.1193 7.3626-1.0381 1.6994 0.0491 2.2884 0.11345 3.5736 0.3901 4.1244 0.88757 7.2262 2.3442 10.117 4.7511 1.6984 1.414 3.7223 3.9158 4.8396 5.9823 1.6237 3.003 2.4175 9.6908 2.0218 17.034-0.20964 3.8946-0.74557 6.2159-2.0844 9.0326-1.2178 2.562-2.6767 4.5809-5.0004 6.9202-2.1514 2.1658-3.7665 3.4184-7.3108 5.6697-2.9914 1.9002-7.4482 3.9705-11.156 5.1823-2.6437 0.864-3.2779 1.0253-6.4847 1.6497-4.3272 0.84256-8.4834 1.1324-11.816 0.82391zm65.672-0.26943c-4.3862-1.9433-11.608-5.8875-16.542-9.0347-0.57425-0.36633-1.4398-0.9115-1.9234-1.2115-1.1328-0.70276-1.8249-1.3183-2.2154-1.9704-0.27838-0.4644-0.31222-0.62453-0.31191-1.456 4.6e-4 -0.79617 0.0471-1.0355 0.31655-1.6194 1.2754-2.7659 4.4866-2.8287 9.747-0.19035 2.1986 1.1026 4.8229 2.8372 9.6193 6.3583 0.50385 0.36989 1.7596 1.264 2.7907 1.987 2.1327 1.4956 2.3474 1.6914 2.5816 2.3554 0.29134 0.82499 0.18094 1.8357-0.35171 3.228-0.72306 1.8904-1.8687 2.3702-3.7109 1.554zm-107.88-28.797c-4.8457-0.32847-8.5996-1.2822-10.674-2.7122-0.67128-0.4628-1.3064-1.3891-1.3064-1.9054 0-0.56556 0.77141-1.8062 1.4696-2.3633 1.4472-1.1549 4.0614-2.0004 7.4882-2.4216 1.6882-0.20779 6.4834-0.17077 8.3533 0.0636 4.1375 0.51944 6.9504 1.4822 8.3715 2.865 0.50768 0.4941 0.70988 0.78152 0.80633 1.1463 0.33762 1.2765-0.46277 2.6087-2.0761 3.4553-1.5515 0.81424-3.4866 1.349-6.0182 1.663-1.2335 0.15298-5.2902 0.28535-6.4143 0.20895zm96.502-0.76091c-1.0027-0.32714-2.9161-1.3644-3.5349-1.9159-1.1015-0.98191-1.373-2.0304-0.77118-2.9785 0.17077-0.26877 0.4803-0.61814 0.68819-0.77649 1.6279-1.2396 6.5975-2.8777 11.439-3.7705 3.7325-0.68825 10.719-1.3847 12.476-1.2437 0.8374 0.0673 1.7553 0.48388 2.1035 0.95485 0.44559 0.60279 0.80572 1.8079 0.80922 2.7085 1e-3 0.45142-0.0421 0.88118-0.0982 0.95493-0.0558 0.0738-0.16256 0.34722-0.23691 0.60761-0.30394 1.0618-1.3827 1.6621-4.8491 2.6984-1.5584 0.46584-5.7163 1.4288-7.8587 1.82-0.36251 0.0664-1.1788 0.21605-1.8135 0.33299-0.63477 0.11688-1.5003 0.26412-1.9235 0.32717-0.42312 0.0632-1.0909 0.16787-1.4838 0.23295-1.2295 0.20412-4.3736 0.23424-4.946 0.0476zm-81.499-21.437c-0.12115-0.0267-0.49185-0.1042-0.82435-0.1701-3.0753-0.61063-7.639-2.9448-12.09-6.1838-1.2339-0.89786-3.0125-2.5114-4.3694-3.964-1.8746-2.0068-2.8633-3.6509-2.9652-4.9312-0.0475-0.5927-0.0233-0.70811 0.17724-0.88942 0.88151-0.79467 7.0889 1.0275 12.434 3.6498 3.6001 1.7664 6.8626 3.7676 8.7013 5.3373 1.0898 0.93035 2.1018 2.1377 2.5435 3.0346 1.0171 2.0648-0.19379 4.0235-2.5528 4.1297-0.45834 0.0207-0.9323 0.0154-1.0531-0.0137zm69.761-3.5132c-0.81445-0.1768-1.2982-0.45281-2.0782-1.1856-1.3698-1.287-1.1443-2.4381 0.88228-4.5018 1.3726-1.3976 1.6721-1.6556 3.7564-3.2335 2.2541-1.7066 9.4786-6.3802 10.364-6.7048 0.85832-0.31456 1.1458-0.3162 2.0716-0.0137 0.62432 0.20505 0.85624 0.36111 1.5425 1.0386 0.91238 0.90061 1.2624 1.559 1.2801 2.4078 0.0207 0.91265-0.38242 1.564-1.8719 3.0374-5.3166 5.2592-10.606 8.7268-14.041 9.2045-1.0117 0.14084-1.0289 0.14032-1.9059-0.05zm-54.6-11.044c-0.93416-0.13501-1.4977-0.46877-2.7621-1.636-1.9368-1.788-3.8645-4.0306-5.2542-6.1124-3.4369-5.1485-4.3185-10.615-2.5848-16.027 0.44057-1.3754 0.76303-1.6247 1.5724-1.2159 2.2627 1.1428 6.0612 6.5879 8.6412 12.387 1.5674 3.523 2.9922 8.5014 2.9922 10.455 0 0.93843-0.66864 1.956-1.3788 2.0983-0.18713 0.0371-0.41478 0.0827-0.50542 0.0999-0.0908 0.0154-0.41492-2e-3 -0.72052-0.0484zm28.389-0.77748c-1.3324-0.31788-2.2562-1.3168-2.7871-3.0141-0.18552-0.59198-0.20595-1.0418-0.20229-4.3964 2e-3 -2.4028 0.053-4.0706 0.14185-4.6712 0.076-0.51385 0.18874-1.3299 0.25151-1.8136 0.57155-4.426 2.4507-10.215 3.844-11.842 0.59559-0.69552 1.6176-1.292 2.2137-1.292 0.24888 0 0.77511 0.12902 1.1692 0.28668 1.758 0.70335 2.5347 1.5947 2.8859 3.312 0.38034 1.8589-0.60428 11.377-1.5484 14.969-0.0565 0.21536-0.20894 0.81205-0.33801 1.3259-0.36832 1.4631-1.0617 3.4972-1.4407 4.2255-0.67025 1.2878-1.5668 2.2827-2.4564 2.7259-0.44442 0.22133-1.2279 0.3046-1.7328 0.18437zm-4.3844 98.776c-0.64502-0.49248-0.98088-0.94939-1.3822-1.8803-1.0558-2.4491-1.4563-5.108-1.4569-9.6722-9.9e-4 -6.9395 0.97486-12.271 2.6153-14.288 0.54571-0.67123 1.1445-0.77018 2.0657-0.34122 2.7159 1.2647 4.3662 7.1374 4.0028 14.245-0.19149 3.7441-0.64057 6.4265-1.4396 8.5979-1.146 3.1143-2.9293 4.4662-4.4051 3.3393zm-29.962-5.979c-0.43752-0.13724-0.97755-0.65243-1.2158-1.1592-1.0902-2.3194 0.63611-8.6866 4.002-14.761 1.522-2.7466 2.7346-4.3806 4.5288-6.1028 2.0983-2.014 3.5787-2.4265 4.8383-1.3483 1.1421 0.9776 1.323 3.2018 0.52314 6.4318-0.78922 3.1871-2.729 7.3881-4.9923 10.812-1.8614 2.8157-4.172 5.2-5.709 5.891-0.5474 0.24622-1.559 0.36722-1.9752 0.23659zm60.59-1.932c-0.79158-0.20184-1.103-0.39111-2.1462-1.3065-4.7828-4.1966-8.5849-10.012-11.157-17.063-0.62394-1.7108-0.81727-2.5569-0.81928-3.5848-1e-3 -0.73913 0.0434-0.92726 0.38408-1.6082 0.46882-0.93716 1.1284-1.5721 2.1224-2.043 0.64224-0.30429 0.84419-0.34675 1.6134-0.33931 2.6309 0.0267 5.1439 2.3895 8.2279 7.7403 0.68042 1.1806 5.894 12.461 6.2876 13.605 0.28038 0.81502 0.2346 1.467-0.15862 2.2662-0.42348 0.86021-1.2194 1.6234-2.1324 2.0445-0.8383 0.38672-1.5011 0.47296-2.2228 0.28934zm-83.941-22.952c-0.49719-0.13194-1.3258-0.83978-1.5131-1.2921-0.65432-1.5796 2.7157-5.3483 7.4835-8.3689 2.41-1.5268 4.8922-2.7053 6.5828-3.1253 1.0847-0.26943 2.6714-0.2827 3.1468-0.0267 0.75093 0.4053 1.2073 1.2759 1.112 2.1213-0.2023 1.7969-2.8128 4.8498-5.9659 6.9774-2.8996 1.9566-5.8779 3.3233-8.1228 3.7273-0.78832 0.14186-2.1642 0.13484-2.7234-0.0137zm42.026-1.2027c-6.9396-0.49435-12.75-3.148-17.661-8.066-4.4402-4.4463-6.8418-9.4263-7.7618-16.095-0.29497-2.136-0.3159-6.5716-0.0431-8.9075 0.79615-6.8116 2.4613-11.567 5.8312-16.652 2.0332-3.0679 4.3728-5.5148 8.8026-9.2058 3.6697-3.0576 7.0128-5.193 9.3415-5.9665 2.7296-0.90663 5.4154-0.12611 6.3479 1.8452 0.81063 1.7135 0.53881 4.8418-0.63125 7.2648-0.69751 1.4445-2.2011 3.1597-3.4125 3.893-2.8248 1.7097-6.058 4.7146-8.2544 7.6716-4.3164 5.8112-6.2449 13.579-4.9372 19.887 1.0264 4.9511 4.4571 9.5285 8.9 11.874 1.3195 0.69665 3.0613 1.3068 4.7611 1.6677 1.3055 0.27704 1.5755 0.29629 4.2517 0.29994 2.463 2e-3 3.0477-0.0298 4.2333-0.23724 5.3915-0.94558 10.205-3.5144 14.86-7.9311 5.6582-5.3678 8.8731-12.956 8.6203-20.347-0.0827-2.4114-0.14391-2.7-0.74296-3.4854-1.8904-2.4787-4.4676-4.3882-6.9334-5.1368-1.3564-0.41183-2.0476-0.51053-3.5696-0.5098-2.8937 1e-3 -5.4809 0.70407-8.9605 2.4339-2.3474 1.167-3.7856 2.1571-5.0414 3.4707-1.2414 1.2986-1.7448 2.1726-2.0961 3.6389-0.42578 1.7775-0.13417 3.7192 0.85501 5.6885 0.66827 1.3308 0.87409 1.5793 2.1489 2.5949 3.1925 2.5434 3.7604 1.7371 1.8346-2.6045-1.0488-2.3643-1.1697-3.4568-0.53265-4.8121 0.49667-1.0565 2.2793-2.341 3.8422-2.7685 0.89288-0.24421 2.7621-0.32152 4.0018-0.16546 2.3496 0.29566 3.8303 0.93502 5.201 2.2456 2.0915 1.9997 2.9755 4.1926 2.8604 7.0957-0.13775 3.4742-1.8805 7.3702-4.4794 10.014-2.9635 3.0145-6.0354 4.0551-11.989 4.0612-3.002 2e-3 -5.3578-0.36415-6.7001-1.0444-1.3756-0.69704-2.7245-2.4586-4.3096-5.6278-1.0742-2.1477-2.3829-5.3927-2.7865-6.9091-1.1481-4.3135 0.0686-9.1076 3.4579-13.62 2.3963-3.1908 5.9768-6.5619 9.4186-8.868 5.286-3.5417 10.608-4.9092 16.154-4.1512 1.1239 0.15367 3.5627 0.7605 4.8325 1.2026 4.8686 1.6952 9.0656 5.2906 11.507 9.8576 1.549 2.8975 2.3301 8.9667 2.0627 16.028-0.14151 3.7345-0.45642 5.6736-1.3238 8.1491-0.69807 1.992-2.2578 4.7226-3.8055 6.6624-1.7675 2.2152-4.5778 4.7222-7.4513 6.6471-6.8942 4.6183-14.669 7.5461-22.818 8.5921-2.899 0.37213-5.6381 0.48495-7.8863 0.32483zm65.656-0.03c-0.81373-0.26112-6.9198-3.3035-9.2326-4.6003-0.24191-0.1357-0.78589-0.43935-1.209-0.67504-2.7668-1.5411-6.6503-3.9057-9.2624-5.6398-2.0773-1.379-2.569-2.8558-1.6319-4.9022 0.34589-0.75521 1.1801-1.5238 1.9421-1.789 1.2286-0.42759 3.4271-0.18345 5.3876 0.59818 2.6227 1.0457 5.1928 2.5439 8.7876 5.1226 1.4194 1.0182 3.7678 2.6913 5.2186 3.718 1.4508 1.0267 2.7934 2.0135 2.9835 2.1927 0.43465 0.40987 0.7349 1.3939 0.63511 2.0814-0.44608 3.0723-1.7627 4.4889-3.6186 3.8934zm-110.57-29.251c-3.5626-0.36186-7.1834-1.4355-8.698-2.5791-1.3127-0.99106-1.5506-1.86-0.8555-3.1246 1.0083-1.8343 3.9997-3.12 8.4538-3.6334 1.8798-0.21675 6.028-0.21628 8.0856 8.4e-4 4.868 0.51376 8.5671 1.9588 9.4514 3.6921 0.29031 0.56938 0.28635 1.5306-7e-3 2.1421-1.1168 2.3071-5.8491 3.6934-12.493 3.6598-1.3779-7e-3 -3.1482-0.0781-3.9341-0.15759zm98.756-0.52455c-2.0573-0.61062-4.112-1.9611-4.6615-3.0638-0.30726-0.61657-0.3505-0.99703-0.16838-1.4824 0.34261-0.91377 1.1433-1.5899 2.6867-2.2691 4.8398-2.1299 11.709-3.5152 19.674-3.9677 2.665-0.15128 3.4972-0.0732 4.1768 0.39242 0.80375 0.55079 1.2889 1.7524 1.3029 3.2268 9e-3 0.91745-0.0154 1.045-0.37203 1.7578-0.32349 0.65158-0.46951 0.8211-0.96042 1.1142-1.0982 0.6557-3.9291 1.5597-7.3377 2.3432-3.0037 0.69039-3.2871 0.75043-4.943 1.0476-0.84631 0.15194-1.7861 0.3245-2.0884 0.3834-2.62 0.51126-6.4228 0.78047-7.3091 0.51743zm-83.038-21.781c-3.4738-0.92374-7.6541-3.135-11.884-6.2863-2.1825-1.6259-4.7858-4.2507-5.9613-6.0104-1.1647-1.7436-1.5101-3.0911-0.93887-3.6623 0.27341-0.27343 0.32284-0.2827 1.1815-0.2209 2.1813 0.1564 7.1132 1.8174 11.103 3.7394 2.991 1.4408 6.1239 3.2895 8.0817 4.7688 1.6375 1.2373 2.8399 2.576 3.4346 3.8238 0.73124 1.5345 0.18621 3.1812-1.2785 3.8633-0.77582 0.36127-2.3464 0.35494-3.7378-0.0154zm70.756-3.2868c-1.0831-0.35555-2.3216-1.4398-2.5624-2.2433-0.18092-0.60358-0.0529-1.3137 0.35131-1.951 1.1554-1.8218 3.9359-4.1643 8.5728-7.2221 6.5591-4.3254 6.8301-4.4777 7.9694-4.4777 0.94873 0 1.7179 0.35947 2.5787 1.2051 1.2224 1.2008 1.5502 2.2155 1.1196 3.4662-0.15641 0.454-0.4479 0.80806-1.6767 2.0358-4.549 4.5451-9.1483 7.8164-12.534 8.9146-1.252 0.40612-3.0261 0.53264-3.819 0.2724zm-54.819-11.102c-0.24189-0.0762-0.61275-0.2287-0.82435-0.33825-0.52861-0.27374-4.1694-3.9439-5.1816-5.2234-3.0006-3.7929-4.5443-7.3577-4.9405-11.408-0.20229-2.0693 0.0372-4.1764 0.7409-6.5072 0.48697-1.6137 0.71859-1.8764 1.4455-1.6396 2.7389 0.89244 8.0637 9.1828 10.407 16.203 1.1608 3.4778 1.7615 6.4887 1.4889 7.4626-0.16787 0.60044-0.6959 1.2546-1.173 1.4539-0.44379 0.18553-1.3722 0.18417-1.9627-2e-3zm28.364-0.83772c-0.60832-0.23756-1.3774-0.92987-1.768-1.5915-0.14254-0.24191-0.37367-0.83532-0.5133-1.3189-0.23823-0.82507-0.25382-1.069-0.25382-3.9568 0-4.0146 0.25748-6.6167 0.99402-10.042 0.76654-3.5654 2.3085-7.6349 3.3452-8.8286 0.61581-0.70911 1.5248-1.1883 2.2541-1.1883 0.57986 0 1.6256 0.3458 2.2855 0.75568 1.3564 0.84246 2.0423 2.5552 1.8926 4.7256-0.0334 0.46125-0.10817 1.6795-0.17009 2.7071-0.16787 2.8058-0.59201 6.082-1.1661 9.0127-0.45509 2.3238-1.4796 5.8055-2.0213 6.8695-0.72238 1.4189-1.9735 2.7154-2.8678 2.9719-0.57378 0.16462-1.4166 0.11568-2.0114-0.11635zm-3.909 98.884c-0.90127-0.66208-1.5157-1.8618-2.0856-4.0721-0.55792-2.1638-0.70589-3.7604-0.70375-7.5944 2e-3 -4.2033 0.24919-6.9662 0.87515-9.7822 0.79422-3.5748 1.8922-5.3229 3.1698-5.0469 1.2887 0.2784 2.5168 1.5704 3.2823 3.4532 1.1248 2.7666 1.583 5.9394 1.4752 10.216-0.12218 4.8356-0.82912 8.5258-2.0947 10.929-0.86259 1.6379-1.6391 2.2684-2.7874 2.2635-0.54484-2e-3 -0.70754-0.0551-1.131-0.36605zm-29.828-5.9218c-0.56417-0.14922-1.2018-0.80283-1.4264-1.4621-0.32217-0.94636-0.18874-3.4173 0.27941-5.1619 0.95469-3.5568 2.3337-6.8174 4.3937-10.389 1.6652-2.8869 4.2305-5.7642 5.8904-6.6066 0.62866-0.3192 0.84013-0.37053 1.5231-0.37053 0.70615 0 0.84534 0.0365 1.2697 0.33461 1.0874 0.76345 1.5073 2.3897 1.1852 4.5904-0.42467 2.9023-1.6015 6.1209-3.5844 9.8032-1.6754 3.1112-3.0856 5.0971-4.9209 6.9298-1.3599 1.3581-2.3059 2.0396-3.1855 2.2954-0.66509 0.19333-0.8178 0.19701-1.4248 0.0365zm60.27-1.9917c-0.61494-0.19931-1.0761-0.51842-2.1945-1.5187-4.8105-4.3026-8.8022-10.614-11.18-17.677-0.45473-1.351-0.5003-1.5822-0.50842-2.5829-7e-3 -1.0043 0.0207-1.1546 0.31222-1.7419 0.49664-0.99415 1.0474-1.5433 2.0522-2.0462 0.80702-0.40393 0.96082-0.44315 1.7251-0.43971 1.5459 7e-3 2.9658 0.75441 4.5358 2.3876 1.0377 1.0795 2.134 2.5878 3.3684 4.6342 0.95393 1.5815 1.349 2.3952 4.0331 8.3071 1.0704 2.3576 2.0704 4.5586 2.2222 4.891 0.4262 0.93372 0.69336 1.7584 0.69336 2.1405 0 2.2412-2.9141 4.341-5.0597 3.6458zm-83.56-22.877c-0.99254-0.27308-1.7267-1.0587-1.7275-1.8488-2e-3 -2.227 4.918-6.7563 10.359-9.536 2.5135-1.2841 4.2914-1.8071 5.8949-1.7342 0.70778 0.033 0.9309 0.0902 1.31 0.34118 0.98607 0.65256 1.182 1.865 0.5235 3.2391-0.88886 1.8548-2.9189 3.9618-5.5578 5.7686-4.2824 2.932-8.4988 4.4036-10.802 3.7701zm107.98-1.1718c-1.8645-0.33115-11.887-5.7223-18.758-10.09-1.954-1.2421-2.4952-1.6748-2.9861-2.3877-0.41671-0.605-0.42112-0.62246-0.42112-1.6697 0-0.92961 0.0372-1.14 0.31058-1.7306 0.37369-0.80907 1.0326-1.4825 1.7776-1.8172 0.87198-0.39186 2.4279-0.41435 3.9126-0.0564 2.7592 0.66493 6.0475 2.435 10.651 5.7334 1.4206 1.0179 3.6957 2.6389 5.0559 3.6021 1.3602 0.96328 2.6783 1.9187 2.9293 2.1232 0.7752 0.63171 0.9854 1.6836 0.63679 3.1866-0.2156 0.92941-0.73953 2.0939-1.1259 2.5022-0.48397 0.51141-1.2282 0.73827-1.9825 0.60429zm-67.284-0.15657c-5.3546-0.58111-10.004-2.5199-14.234-5.9349-1.2564-1.0144-3.7671-3.5712-4.6377-4.7227-3.0038-3.973-4.6032-7.939-5.3834-13.349-0.27273-1.891-0.27474-7.3079-2e-3 -9.3975 0.37454-2.885 0.66094-4.3512 1.2985-6.6431 1.3881-4.9907 4.2079-9.9881 7.7559-13.746 1.385-1.4667 2.1204-2.1664 3.9381-3.7468 6.6156-5.7522 11.161-8.2278 14.113-7.6871 1.2715 0.23294 1.8734 0.52527 2.5982 1.262 0.57832 0.58791 0.69583 0.78151 0.90714 1.4944 0.29098 0.98235 0.31921 2.3148 0.0805 3.7865-0.50856 3.1312-2.1014 5.4566-5.029 7.3415-0.638 0.41078-1.6477 1.1521-2.2438 1.6475-5.1639 4.2915-8.4537 9.3839-9.9202 15.356-1.5261 6.2152-0.75622 11.609 2.3173 16.235 0.94125 1.4167 3.203 3.7379 4.5088 4.6274 2.5223 1.7181 5.4992 2.721 8.9107 3.0021 7.5084 0.61852 14.79-2.2803 20.999-8.36 4.5361-4.4416 7.2554-9.6771 8.2246-15.834 0.26412-1.6789 0.32485-4.9822 0.11481-6.3036-0.10441-0.65886-0.19471-0.85129-0.72439-1.5388-2.0464-2.6576-4.7133-4.4974-7.6093-5.2492-1.3815-0.35864-4.0727-0.35978-5.7578-2e-3 -1.7537 0.37184-3.6021 1.0328-5.5881 1.9983-3.6758 1.7869-5.7972 3.5462-6.8878 5.7117-0.52245 1.0375-0.71355 1.8827-0.71355 3.1565 0 1.4225 0.27208 2.483 1.0387 4.0511 0.62893 1.2862 1.0143 1.7289 2.4626 2.8293 1.3427 1.0202 1.9562 1.2724 2.3398 0.96185 0.22892-0.18553 0.23357-0.22456 0.10442-0.89854-0.0744-0.38749-0.47446-1.5013-0.88956-2.4752-1.0038-2.3554-1.1428-2.8562-1.0678-3.8477 0.0828-1.0966 0.37781-1.6931 1.2599-2.5478 0.55623-0.53901 0.98932-0.83523 1.731-1.184 1.3338-0.62718 2.1401-0.75372 4.3045-0.67563 2.0008 0.0724 3.1538 0.33486 4.5309 1.0321 1.0554 0.53437 2.3485 1.7482 3.0842 2.895 2.0856 3.2514 2.0345 6.8787-0.16068 11.375-0.85045 1.7419-1.3534 2.5122-2.4545 3.7591-1.9042 2.1564-4.3473 3.52-7.3811 4.1199-0.9494 0.18783-1.712 0.23759-4.3014 0.28069-3.3023 0.0551-4.3407-0.0154-5.9754-0.41903-1.7949-0.44076-2.8823-1.273-4.136-3.1659-1.5096-2.2791-3.9261-7.6471-4.5686-10.148-0.25748-1.0016-0.29165-1.3511-0.2993-3.0545-2e-3 -1.4813 0.0372-2.1255 0.18943-2.8027 0.92003-4.0774 3.3278-7.9134 7.4841-11.923 5.427-5.2359 10.585-8.0242 16.259-8.789 1.2863-0.17358 4.1726-0.14253 5.5393 0.059 7.1974 1.0618 12.796 4.8022 16.272 10.871 1.7096 2.9848 2.5358 9.8075 2.1105 17.429-0.13176 2.3657-0.24686 3.2625-0.61287 4.7988-1.8167 7.6179-7.9785 14.11-18.124 19.095-3.7915 1.863-6.7099 2.9405-10.551 3.896-5.3879 1.34-10.931 1.8407-15.223 1.3749zm-42.486-29.059c-1.7454-0.12971-3.5304-0.4052-5.0877-0.78525-4.0579-0.99036-6.0629-2.2704-6.0629-3.8706 0-0.7398 0.51848-1.7786 1.1521-2.3082 1.9024-1.5902 5.5856-2.6078 10.059-2.7792 3.2538-0.12475 7.275 0.22433 9.6887 0.84049 3.2064 0.81865 5.321 2.0935 5.6928 3.4321 0.71438 2.5717-2.2889 4.543-8.0724 5.2986-1.5618 0.20411-5.6534 0.2996-7.3694 0.17219zm98.431-0.56502c-0.91536-0.065-1.2543-0.15863-2.3631-0.65215-2.7463-1.2226-3.9877-2.8671-3.2839-4.3502 0.23691-0.49932 1.1515-1.3085 1.9057-1.6862 2.273-1.1382 6.5438-2.429 10.354-3.1296 3.476-0.63911 9.5026-1.2716 12.116-1.2716 2.267 0 3.3787 1.1836 3.4066 3.6271 0.0137 1.3492-0.16307 1.9531-0.77783 2.6372-0.41566 0.46231-0.64538 0.59999-1.6468 0.98678-2.8849 1.1143-8.1134 2.3814-13.556 3.2851-3.0294 0.50305-4.7216 0.65522-6.155 0.55346zm-83.35-21.704c-4.8486-1.0845-12.035-5.4144-16.212-9.7673-2.1925-2.2852-3.3012-4.0674-3.4014-5.4676-0.0762-1.0663 0.0512-1.1896 1.2294-1.1895 2.1526 3.4e-4 7.1141 1.668 11.771 3.9565 6.0466 2.9714 9.69 5.666 10.973 8.1152 0.21102 0.40306 0.41818 0.966 0.46037 1.251 0.17077 1.1576-0.4626 2.37-1.5193 2.9065-0.72313 0.36714-2.1537 0.45162-3.301 0.19517zm70.479-3.3792c-1.2731-0.28801-2.6778-1.4449-2.9544-2.4329-0.11396-0.40619-0.11396-0.59871 1e-3 -1.0225 0.35007-1.2942 2.4949-3.4914 5.8766-6.0195 0.4798-0.3587 5.102-3.4238 7.7724-5.1541 1.0055-0.65153 1.946-1.1742 2.3405-1.3006 1.3083-0.41942 2.5151-0.041 3.7069 1.1627 0.90703 0.91604 1.2274 1.5538 1.2239 2.4362-2e-3 1.0464-0.30193 1.5587-1.7204 2.9606-6.7196 6.6415-12.802 10.15-16.246 9.3702zm-54.779-11.07c-1.059-0.2133-1.4264-0.48115-3.4986-2.5489-2.943-2.9368-4.5553-5.0851-5.9334-7.9062-2.1975-4.4985-2.5306-8.7988-1.0482-13.532 0.35171-1.1229 0.56374-1.3997 1.0726-1.3997 1.066 0 3.113 2.0013 5.1321 5.0175 3.7575 5.613 6.3333 11.862 7.1906 17.445 0.15229 0.98973-0.0536 1.7522-0.63678 2.3638-0.58029 0.60829-1.2388 0.77046-2.2783 0.56092zm28.493-0.7703c-0.66994-0.16769-1.2142-0.49431-1.699-1.0203-1.2416-1.3471-1.5653-3.2275-1.3563-7.8789 0.0664-1.481 0.16839-3.0391 0.22686-3.4622 0.0582-0.42315 0.18276-1.3382 0.27673-2.0333 0.57487-4.2464 2.3962-9.7862 3.7793-11.496 1.0604-1.3104 2.4857-1.6073 4.0909-0.85188 1.7849 0.84003 2.5104 2.1617 2.5131 4.5782 2e-3 4.0717-0.8358 10.517-1.9228 14.749-0.94875 3.6937-1.5995 5.1008-3.012 6.5131-0.80794 0.80773-1.9063 1.1499-2.8967 0.90226zm-4.4137 98.702c-0.88622-0.67054-1.5642-1.9998-2.101-4.1191-0.61582-2.4313-0.82509-5.383-0.68522-9.665 0.19974-6.1171 1.3001-10.968 2.8154-12.412 0.66692-0.6356 2.0022-0.40495 2.9708 0.5131 1.2031 1.1404 2.2382 3.6447 2.78 6.7262 0.33264 1.8914 0.41145 6.8541 0.14921 9.4074-0.43525 4.2385-1.3888 7.3099-2.7728 8.9314-0.62568 0.733-1.0874 0.9515-2.0028 0.94762-0.62812-2e-3 -0.77844-0.0455-1.1534-0.32917zm-29.908-5.9395c-0.45041-0.13108-1.0284-0.71336-1.2889-1.2986-0.90163-2.0258 0.43926-7.662 3.0736-12.919 2.7229-5.4339 5.9267-9.1993 8.3778-9.8464 0.66409-0.17519 1.314-0.0558 1.9354 0.35583 0.4106 0.27176 0.59333 0.4984 0.86066 1.0666 0.29896 0.63561 0.34426 0.86127 0.38119 1.8987 0.10904 3.0671-1.2363 7.1712-3.9735 12.122-2.3353 4.2237-5.2983 7.603-7.4385 8.4836-0.62573 0.2575-1.3405 0.30858-1.9279 0.13775zm60.742-1.8678c-1.0019-0.20504-1.7923-0.79437-3.9306-2.9298-4.1939-4.1883-7.54-9.7363-9.7973-16.245-0.47047-1.3564-0.49613-1.4929-0.50668-2.6928-9e-3 -1.196 2e-3 -1.2988 0.31689-1.9114 0.42477-0.83846 1.2161-1.6052 2.1301-2.064 0.66111-0.33189 0.8165-0.36541 1.6635-0.35887 0.74155 7e-3 1.0722 0.0651 1.6027 0.28702 2.2323 0.93453 3.8776 2.6988 6.4056 6.8687 0.77064 1.2712 1.4705 2.7029 3.5368 7.2355 3.0936 6.7861 3.2149 7.0785 3.2681 7.8786 0.0604 0.91226-0.16256 1.5539-0.80028 2.301-1.0814 1.2669-2.5859 1.8978-3.8889 1.631zm-84.131-23.029c-0.67262-0.21491-1.4602-0.9749-1.5596-1.5047-0.15298-0.81548 0.27509-1.7637 1.4138-3.1319 2.3297-2.799 6.6618-5.8692 10.753-7.6208 1.8056-0.77302 3.8108-1.1445 4.7702-0.88375 1.077 0.29266 1.7745 1.2994 1.6611 2.3976-0.15297 1.4808-1.9286 3.8684-4.2924 5.7713-2.7162 2.1865-6.3056 4.1259-8.9373 4.8289-1.1456 0.3059-3.0735 0.37851-3.8091 0.14321zm107.8-1.1902c-0.96279-0.30262-5.9727-2.7853-9.0307-4.475-3.1339-1.7316-7.0372-4.0478-9.2822-5.508-0.68824-0.44762-1.4287-0.92111-1.6455-1.0522-0.47672-0.28834-1.4382-1.2866-1.6691-1.733-0.25682-0.49669-0.34381-1.4925-0.18874-2.1596 0.18552-0.79746 0.71865-1.7754 1.2098-2.2191 1.3631-1.2315 4.0086-1.1857 7.1423 0.12372 1.978 0.82646 4.9073 2.4853 6.7596 3.828 0.60447 0.43816 1.3752 0.98702 1.7126 1.2196 2.1604 1.489 7.9938 5.7103 8.159 5.9042 0.38114 0.44764 0.54173 0.98276 0.53277 1.7776-0.0137 0.95102-0.21238 1.7531-0.70685 2.8121-0.43427 0.92993-0.71776 1.2292-1.3888 1.4659-0.56598 0.19975-1.0052 0.20412-1.6042 0.0154zm-67.417-0.12885c-2.5781-0.32486-5.4778-1.1372-7.8177-2.1904-4.4548-2.0051-8.98-5.8906-11.714-10.058-3.3321-5.0792-4.8351-11.306-4.4479-18.428 0.48978-9.0111 3.2176-16.189 8.4707-22.288 2.4723-2.8708 7.8742-7.5011 11.373-9.7488 3.5795-2.2994 5.937-3.0106 8.1176-2.4485 2.4676 0.63606 3.4987 2.4892 3.1488 5.6592-0.38281 3.4678-1.8782 6.0022-4.6168 7.8239-2.3208 1.5438-3.5662 2.5715-5.4511 4.4982-1.351 1.381-2.1142 2.2914-3.0684 3.66-2.441 3.5012-4.018 7.488-4.6734 11.816-0.33514 2.2116-0.27008 5.3643 0.14921 7.2562 0.96563 4.3553 3.2862 8.0168 6.6918 10.559 2.1358 1.5941 4.3614 2.5396 7.3958 3.142 1.4294 0.2837 6.1202 0.28602 7.6939 2e-3 2.852-0.51158 4.8705-1.1727 7.2541-2.3762 2.1501-1.0856 3.5309-1.9821 5.5752-3.62 5.8236-4.6658 9.4777-10.812 10.589-17.811 0.24123-1.5199 0.32485-4.5507 0.16324-5.9448-0.13278-1.1478-0.13638-1.1583-0.72356-1.9398-1.39-1.8508-3.3364-3.5013-5.163-4.3782-1.7892-0.85897-3.1434-1.1561-5.2684-1.1558-2.8222 3e-4 -5.4987 0.7354-8.9189 2.4495-5.0503 2.5312-7.3855 5.4769-7.1561 9.0267 0.0791 1.2169 0.34301 2.1523 0.98702 3.495 0.58132 1.2116 0.91991 1.6664 1.715 2.3038 1.6773 1.3447 2.3861 1.7722 2.8499 1.7185 0.28371-0.0334 0.29365-0.0567 0.28205-0.69344-0.0137-0.66999-0.33048-1.6171-1.1443-3.4072-0.49294-1.0842-0.64141-1.5266-0.76051-2.2661-0.12371-0.76681 0.0137-1.8042 0.31921-2.3909 0.34341-0.66215 1.6234-1.8201 2.4863-2.2494 1.2867-0.63999 1.9684-0.77872 3.8374-0.78094 3.3315-2e-3 5.2966 0.68632 7.1225 2.5017 1.8258 1.8153 2.7146 3.9755 2.7146 6.5977 0 1.9919-0.4627 3.8226-1.5358 6.0762-1.3201 2.7726-2.8762 4.6947-4.9275 6.0863-2.7834 1.8883-5.8444 2.5356-11.233 2.3753-3.9013-0.11618-5.6308-0.62581-7.0905-2.0897-1.4325-1.4365-3.4414-5.256-5.2088-9.9035-1.0323-2.7145-1.2145-5.3972-0.55562-8.1826 0.86549-3.6592 3.1225-7.2324 7.0185-11.112 3.0346-3.0216 6.0294-5.2577 9.1409-6.8253 2.172-1.0942 4.3712-1.822 6.8074-2.2527 1.286-0.22731 4.7874-0.2598 6.1551-0.0567 3.3077 0.49052 6.9314 1.8092 9.4524 3.4397 3.6574 2.3655 6.994 6.5207 7.915 9.8569 0.95039 3.4427 1.1505 5.4229 1.1518 11.395 1e-3 5.9589-0.12611 7.138-1.0989 10.167-0.77632 2.4174-2.4661 5.4228-4.2299 7.5231-1.8682 2.2245-4.6301 4.6462-7.4656 6.5457-2.3975 1.6061-6.8154 3.943-9.5219 5.0366-4.0937 1.6542-8.1396 2.7111-13.184 3.4439-2.0466 0.29729-7.7012 0.37991-9.6032 0.14032zm-42.77-29.075c-2.8272-0.24355-6.2078-1.0657-7.9686-1.9379-1.6862-0.83519-2.3631-1.6163-2.3631-2.7265 0-2.5344 3.4156-4.3728 9.292-5.0016 1.4044-0.15041 5.4509-0.15127 7.0849-2e-3 5.2119 0.47651 9.2318 1.9802 10.103 3.7791 0.35586 0.73559 0.31655 1.7312-0.0976 2.4529-0.98486 1.7172-3.9868 2.9134-8.5014 3.3875-1.7235 0.18117-5.7142 0.20666-7.549 0.049zm98.261-0.60529c-0.99008-0.26448-3.0364-1.3415-3.6985-1.9465-0.85769-0.78388-1.1918-1.4024-1.1812-2.1864 0.0207-1.4953 1.3691-2.4736 5.2643-3.8186 3.0049-1.0376 6.3302-1.8074 9.947-2.3027 5.0949-0.69777 9.601-0.96802 10.859-0.65129 0.75334 0.18989 1.4605 0.94967 1.736 1.8657 0.27009 0.89762 0.28367 2.9136 0.0207 3.5083-0.26844 0.61477-0.86237 1.215-1.4628 1.4784-2.3532 1.0324-6.2838 2.0946-11.376 3.0742-5.5258 1.063-8.6607 1.3664-10.112 0.9788zm-81.609-21.482c-2.9515-0.32186-7.9571-2.7287-12.53-6.0247-3.2322-2.3298-6.3191-5.5381-7.4171-7.7092-0.59814-1.1826-0.68576-2.4544-0.19289-2.7996 0.49576-0.34728 1.9474-0.17747 4.2576 0.49816 3.155 0.92263 5.1657 1.7078 8.4083 3.2834 6.5316 3.1738 10.563 6.3029 11.466 8.899 0.19701 0.56639 0.15743 1.6437-0.0797 2.1654-0.59749 1.3158-1.9542 1.9009-3.9122 1.6874zm69.284-3.6123c-0.72312-0.23127-1.792-1.0148-2.21-1.62-0.62543-0.90538-0.50264-1.9801 0.35754-3.1286 1.3531-1.8068 3.9246-3.9122 8.3608-6.8453 6.8506-4.5295 6.843-4.5253 8.1632-4.4391 1.004 0.0657 1.554 0.34404 2.5188 1.2755 1.2526 1.2092 1.5607 2.2568 1.0585 3.5992-0.19378 0.51813-0.44214 0.82777-1.5112 1.8842-5.0733 5.0132-10.074 8.4556-13.465 9.2685-1.1256 0.26977-2.439 0.2721-3.2723 7e-3zm-54.967-11.128c-1.4175-0.49414-5.1357-4.3517-7.2308-7.5017-2.2606-3.3989-3.296-6.3289-3.5765-10.121-0.17382-2.3518 0.70276-6.6937 1.5036-7.4465 0.39528-0.37167 0.56739-0.37583 1.2582-0.03 1.568 0.78399 3.8741 3.625 6.2029 7.6418 2.4508 4.2271 4.0887 8.3144 5.0574 12.62 0.40686 1.808 0.50431 2.7851 0.33882 3.3953-0.17151 0.63383-0.74976 1.3577-1.2184 1.5259-0.57236 0.20527-1.6144 0.16856-2.3353-0.0827zm28.934-0.63458c-1.2998-0.39682-2.0828-1.2951-2.6408-3.0297-0.21766-0.67749-0.25347-1.0648-0.29827-3.2424-0.1126-5.4742 0.65996-10.664 2.2819-15.333 1.4854-4.2756 2.5112-5.5505 4.4658-5.5505 1.8706 0 3.3039 1.0138 4.0032 2.8316 0.21446 0.55799 0.24125 0.82677 0.2326 2.3342-0.0298 4.9202-0.937 11.358-2.2317 15.81-0.70668 2.4295-1.09 3.3281-1.8576 4.3547-0.99276 1.3278-1.943 1.9336-3.0098 1.9186-0.36871-2e-3 -0.79424-0.0471-0.94535-0.0933zm-4.4977 98.516c-1.1423-1.027-1.9924-3.4507-2.4436-6.9664-0.18989-1.4818-0.18736-7.6566 2e-3 -9.5623 0.52632-5.2347 1.5757-8.7438 2.9064-9.7192 0.68263-0.50027 2.0908-0.12748 2.9434 0.77937 0.92922 0.98835 1.5158 2.1474 2.1165 4.1821 0.68688 2.3267 0.94969 4.3908 0.94812 7.4463-2e-3 6.2757-1.1464 11.401-2.9939 13.422-0.71781 0.78534-1.0299 0.92518-2.0659 0.92518h-0.85054l-0.56462-0.50763zm-29.628-5.7072c-0.62061-0.23558-1.1196-0.76532-1.388-1.4733-0.20802-0.54938-0.22524-0.76346-0.17078-2.1489 0.0664-1.6929 0.2492-2.64 0.95942-4.9697 1.2185-3.9972 3.8802-9.1228 6.2376-12.012 0.95907-1.1753 2.6698-2.7267 3.4709-3.1477 0.99106-0.52082 1.9865-0.62571 2.6628-0.28071 2.2987 1.1727 2.2403 4.8082-0.17725 10.998-0.29032 0.74309-1.6102 3.387-2.2782 4.5634-1.4343 2.5257-2.835 4.4667-4.3361 6.0091-2.0731 2.1302-3.715 2.9415-4.9806 2.4611zm60.339-1.9616c-0.24188-0.076-0.66038-0.27772-0.93022-0.44846-0.75745-0.47904-3.7436-3.4677-5.0548-5.059-3.0231-3.6691-5.6693-8.541-7.3882-13.603-0.53025-1.5613-0.56948-1.7499-0.57722-2.7761-7e-3 -1.027 0.0137-1.1496 0.34633-1.8219 0.47745-0.97046 1.2118-1.6853 2.2154-2.1567 0.77347-0.36334 0.85927-0.37944 1.8308-0.34359 0.96931 0.0357 1.0701 0.0636 2.054 0.5687 1.8494 0.9494 3.4477 2.7016 5.4616 5.9875 0.85755 1.3992 2.3444 4.253 2.7499 5.278 0.11157 0.28238 0.52496 1.206 0.91827 2.0522 1.792 3.8558 3.379 7.4476 3.496 7.912 0.2608 1.036-0.10794 2.175-1.0017 3.0962-1.2023 1.2388-2.7695 1.7385-4.1202 1.3138zm-83.474-22.842c-0.61652-0.13724-1.3427-0.63027-1.6423-1.115-0.5133-0.83059-0.15709-2.0943 0.98178-3.4795 0.87711-1.0672 2.6691-2.7742 3.8226-3.6414 4.8445-3.642 9.5444-5.6397 12.036-5.1159 0.50753 0.10673 1.2379 0.73943 1.456 1.2615 0.24555 0.58762 0.20206 1.5684-0.0995 2.2457-1.1285 2.5333-4.0372 5.2131-8.2066 7.5606-3.3352 1.8778-6.403 2.7172-8.3479 2.2841zm107.65-1.2402c-1.4366-0.39098-8.135-3.8423-12.915-6.6541-3.1941-1.8791-4.3199-2.5733-7.0343-4.3375-0.77269-0.50216-1.5112-1.24-1.8307-1.8288-0.15401-0.28369-0.20069-0.61287-0.20138-1.414-8.8e-4 -0.94111 0.0334-1.1152 0.34011-1.7638 0.46454-0.98037 0.90166-1.4433 1.7169-1.8182 0.94119-0.43287 2.4225-0.49488 3.9013-0.16325 2.4662 0.55286 6.394 2.55 9.5862 4.874 1.0921 0.79511 5.5151 3.9582 6.261 4.4775 1.586 1.1043 3.1668 2.2624 3.2869 2.4082 0.81376 0.98715 0.72898 2.8856-0.2133 4.7714-0.42733 0.85549-0.83002 1.2314-1.5472 1.4444-0.66384 0.19699-0.64207 0.19699-1.3508 2e-3zm-67.101-0.11943c-6.1405-0.66644-11.51-3.2216-16.144-7.6822-4.5488-4.379-7.1633-9.659-8.1104-16.38-0.27904-1.9825-0.27972-7.4588-5.5e-4 -9.5965 0.43691-3.3452 1.1092-6.3125 1.9501-8.6064 2.1752-5.9343 5.2785-10.4 10.265-14.773 0.48135-0.42209 1.0996-0.96898 1.3739-1.2153 0.61976-0.55664 2.3393-1.9262 3.815-3.0385 3.6158-2.7253 6.859-4.2651 8.976-4.2616 0.7615 1e-3 2.2771 0.41989 2.8491 0.78695 1.2172 0.78107 1.84 2.0963 1.84 3.8861 0 2.0404-0.32416 3.5094-1.1399 5.1652-0.79443 1.6125-1.9805 2.9549-3.4764 3.9348-2.2798 1.4934-3.4177 2.4247-5.3526 4.3811-2.2803 2.3056-3.7145 4.2696-5.1475 7.0488-1.3538 2.6258-2.2899 5.5277-2.7546 8.5392-0.22684 1.4701-0.26411 4.9031-0.066 6.0451 0.75469 4.3471 2.5566 7.8139 5.488 10.559 4.9049 4.5924 12.655 5.8256 20.561 3.2715 5.3568-1.7306 11.572-6.6051 14.966-11.737 3.2923-4.9783 4.9142-10.846 4.5041-16.296-0.0661-0.87565-0.18209-1.6732-0.26746-1.8342-0.0828-0.15658-0.47502-0.68756-0.87121-1.1797-1.8046-2.2412-4.1823-3.8935-6.6287-4.6063-3.4484-1.0047-7.5482-0.3378-12.231 1.9895-3.9286 1.9525-6.3891 4.3904-6.9732 6.9089-0.39859 1.719-0.14255 3.6346 0.72558 5.4262 0.78717 1.6246 0.97797 1.8408 2.8975 3.284 0.96724 0.72726 1.8212 1.0064 1.9614 0.64105 0.16171-0.42146-0.11772-1.2557-1.5641-4.6702-0.37162-0.87702-0.39525-1.0049-0.39151-2.0883 2e-3 -1.4802 0.17541-1.8685 1.2878-2.9419 1.2161-1.1734 2.6081-1.751 4.6945-1.9482 0.89081-0.0842 2.9623 0.11636 4.0611 0.39315 2.5669 0.64671 4.6533 2.4679 5.8308 5.0899 1.3767 3.0655 0.83312 7.0794-1.5198 11.223-1.4036 2.4715-3.447 4.4567-5.8106 5.645-1.7693 0.88944-3.6475 1.2876-6.848 1.4514-4.0834 0.20895-7.2247-0.20414-8.8662-1.166-1.8949-1.1105-4.0966-4.8785-6.3604-10.885-0.73651-1.9541-0.87111-2.7282-0.86829-4.992 2e-3 -2.4353 0.19379-3.4109 1.0946-5.5999 2.3128-5.6204 9.1143-12.477 15.462-15.587 3.6846-1.8052 6.3369-2.4445 10.142-2.4445 6.0584 0 12.103 2.5194 15.987 6.6636 2.1452 2.2889 3.6916 4.7563 4.2392 6.7638 0.9735 3.5689 1.3413 7.3517 1.2318 12.667-0.0967 4.6881-0.29897 6.2852-1.1222 8.8591-0.78507 2.4545-2.6119 5.7262-4.2646 7.6376-3.2791 3.7923-6.7563 6.4365-12.618 9.5957-0.95561 0.51498-3.4194 1.6332-4.8784 2.2142-4.6375 1.8465-9.9258 3.0732-15.168 3.5184-1.7847 0.15161-5.0833 0.12287-6.7596-0.0595zm-42.524-29.066c-1.3387-0.10519-3.4462-0.38845-4.0782-0.54836-0.21171-0.0536-0.80513-0.20207-1.319-0.33048-2.8804-0.71843-4.9941-1.8583-5.4444-2.9361-0.26843-0.64227-0.20942-1.674 0.13365-2.3349 1.0018-1.931 4.6055-3.3329 9.6524-3.7549 1.7404-0.14562 5.7413-0.0509 7.5988 0.17956 3.5553 0.44138 6.3638 1.3491 8.0316 2.5959 1.7665 1.3206 1.6155 3.5215-0.33346 4.8599-2.1759 1.4942-5.5332 2.2362-10.516 2.3239-1.3601 0.0233-3.0366-6.6e-4 -3.7255-0.0546zm98.249-0.54285c-1.307-0.14596-3.6219-1.3002-4.6208-2.3041-0.74737-0.75107-0.98468-1.2351-0.98468-2.0085 0-1.0446 0.73237-1.9017 2.2697-2.6561 2.2318-1.0954 5.7005-2.1804 9.326-2.9174 3.5402-0.71959 10.074-1.4415 13.006-1.4369 0.96445 1e-3 1.8436 0.20411 2.3021 0.5306 0.86226 0.614 1.3026 1.9863 1.2052 3.7555-0.11483 2.0904-0.55993 2.5466-3.4705 3.5597-1.1695 0.40711-3.9705 1.1976-5.1288 1.4474-0.36251 0.0784-1.3272 0.28934-2.1433 0.46916-0.81609 0.17978-1.7805 0.38145-2.1432 0.44816-0.36251 0.0666-1.1788 0.21904-1.8136 0.33881-3.1579 0.5953-6.4649 0.92316-7.8037 0.77369zm-82.828-21.659c-1.0278-0.18461-3.5998-1.1111-5.1691-1.8625-4.0215-1.9256-8.0708-4.7308-10.87-7.5301-1.5204-1.5205-2.3414-2.5147-3.048-3.6911-0.64102-1.0669-0.85183-1.7012-0.85183-2.5628 0-0.96335 0.16256-1.0995 1.3072-1.0921 0.4734 2e-3 1.1272 0.0664 1.4529 0.14066 5.8203 1.3277 13.778 5.0495 18.235 8.5285 1.9727 1.5397 3.2892 3.1526 3.6285 4.4451 0.15162 0.57755 0.0679 1.5211-0.17656 1.9944-0.26842 0.51866-0.92674 1.1889-1.413 1.4381-0.5138 0.26345-2.1364 0.36387-3.0952 0.19172zm69.999-3.4986c-1.242-0.3688-2.4067-1.3726-2.7332-2.3556-0.23691-0.71304-0.0878-1.4436 0.46711-2.2826 0.41832-0.63307 2.5936-2.8419 3.3825-3.4346 0.25714-0.19311 0.96138-0.7269 1.5649-1.186 1.1609-0.88294 3.6957-2.5838 7.6652-5.1434 3.0654-1.9767 3.5633-2.1379 5.0722-1.6426 0.59124 0.19403 0.87704 0.37996 1.548 1.0065 1.0525 0.98288 1.4011 1.627 1.4083 2.6023 7e-3 1.1355-0.30857 1.6645-1.987 3.3152-2.053 2.0193-4.6484 4.2365-6.7029 5.7261-1.0586 0.7677-3.3952 2.1217-4.4942 2.6044-2.082 0.91454-3.8604 1.1852-5.1909 0.79012zm-54.763-11.073c-0.96091-0.25812-1.4452-0.61468-3.1657-2.3302-2.8656-2.8573-4.6889-5.2679-6.0436-7.9902-1.4766-2.9675-2.0719-5.5689-1.9744-8.6281 0.063-1.9783 0.28234-3.328 0.80519-4.9564 0.36703-1.1426 0.50772-1.3703 1.0076-1.6289 0.21078-0.10883 0.35504-0.0777 0.93428 0.20205 1.0646 0.51416 2.003 1.4381 3.7627 3.7044 1.2454 1.604 3.6738 5.8647 5.0036 8.7789 1.4694 3.2203 2.9888 8.505 3.0021 10.442 7e-3 1.5277-0.96355 2.601-2.3373 2.5757-0.21605-2e-3 -0.66339-0.0799-0.99441-0.1689zm28.629-0.74067c-0.68478-0.22731-1.2919-0.57252-1.6079-0.91407-1.2893-1.3933-1.6637-3.5218-1.4309-8.1336 0.293-5.7966 1.1419-10.001 2.9046-14.381 0.80237-1.9936 1.6667-3.1925 2.5853-3.5863 0.59631-0.2555 2.0608-0.27705 2.7409-0.0403 1.1468 0.39949 2.1375 1.3495 2.5784 2.4723 0.6397 1.6292 0.14853 8.6435-1.0233 14.618-0.2495 1.2721-1.041 4.2381-1.4519 5.4406-0.70082 2.051-1.8976 3.7016-3.1457 4.3383-0.56741 0.28966-1.5746 0.37632-2.1496 0.18552zm-4.4715 98.68c-0.87335-0.57224-1.6484-2.2198-2.2216-4.7228-0.70188-3.0647-0.79833-8.7643-0.22916-13.574 0.37287-3.1533 1.0413-5.7576 1.8199-7.0893 0.89099-1.5241 1.6983-1.7888 3.1794-1.0425 1.8087 0.91143 3.2603 4.33 3.803 8.9561 0.21972 1.8731 0.15742 6.3311-0.11911 8.5731-0.41557 3.3645-1.2522 6.2142-2.2678 7.7242-0.83719 1.2447-1.2194 1.4565-2.6109 1.447-0.81082-7e-3 -1.007-0.0449-1.3531-0.27175zm-29.821-5.8785c-1.1296-0.43407-1.5949-1.4-1.5921-3.3054 1e-3 -1.2734 0.2691-2.926 0.71832-4.4418 0.16118-0.54407 0.34049-1.1623 0.39815-1.3739 0.44184-1.6198 2.1455-5.3747 3.4782-7.6663 0.22227-0.38271 0.5283-0.9141 0.67944-1.1809 1.2277-2.1678 4.1022-5.2641 5.556-5.9848 0.85401-0.4234 1.843-0.55997 2.4956-0.3446 1.0853 0.3582 1.8594 1.6265 1.9306 3.1633 0.15229 3.2788-1.5225 8.203-4.5525 13.387-0.56847 0.97275-0.97003 1.6135-1.3357 2.1316-0.19631 0.27841-0.48088 0.69068-0.63191 0.91606-0.35668 0.53238-2.4224 2.8332-2.7302 3.041-0.13057 0.0881-0.42109 0.32285-0.64556 0.52158-0.5946 0.52639-1.2446 0.91301-1.933 1.1499-0.75268 0.25914-1.1348 0.25616-1.8354-0.0137zm60.136-1.9725c-1.1818-0.60547-3.8469-3.1652-5.8405-5.6098-2.2119-2.7121-4.3334-6.1961-5.6889-9.3424-1.0023-2.3266-1.5834-3.8599-2.0202-5.3307-0.12611-0.42452-0.19701-1.0322-0.19952-1.7059-2e-3 -0.97389 0.0207-1.0997 0.3737-1.8136 0.46212-0.93891 1.2598-1.7526 2.1503-2.1934 0.5528-0.27374 0.82123-0.33299 1.6598-0.36684 0.88186-0.0357 1.0866-7e-3 1.7299 0.2515 0.40103 0.16051 0.95574 0.4183 1.2322 0.57284 0.66159 0.3697 2.2989 1.8934 2.7984 2.6042 0.21766 0.30954 0.61868 0.85969 0.89125 1.2224 0.27244 0.36273 0.62909 0.88204 0.79219 1.1541 0.16273 0.2721 0.57133 0.93974 0.90718 1.4838 0.65693 1.0642 1.6576 3.0735 2.6444 5.3099 0.33846 0.76711 0.7826 1.7194 0.98691 2.1163 0.20434 0.39684 0.37162 0.76485 0.37162 0.81774 0 0.0529 0.14631 0.39596 0.32516 0.76224 0.50271 1.0305 2.2692 5.0176 2.4084 5.4361 0.22227 0.66878 0.15453 1.5548-0.1694 2.2152-0.441 0.89801-1.6007 1.9807-2.4705 2.3065-0.96637 0.36194-2.2912 0.41248-2.8818 0.1097zm-83.228-22.801c-0.6791-0.16496-1.167-0.49727-1.5929-1.0853-0.48477-0.66916-0.45101-1.362 0.12166-2.5016 0.37828-0.75217 0.67551-1.1146 2.0608-2.5115 2.6954-2.7181 5.6324-4.718 9.3986-6.3998 3.4838-1.5557 5.9304-1.5122 6.7561 0.12047 0.74206 1.4671-0.10265 3.4412-2.4953 5.8327-1.5748 1.5739-3.3902 2.9804-4.8268 3.7396-0.34052 0.17977-0.81695 0.45145-1.0587 0.60339-0.24189 0.15195-0.58802 0.34949-0.7694 0.43899-0.18115 0.0895-0.40397 0.20412-0.49458 0.25482-0.42489 0.23758-1.9461 0.85413-2.583 1.047-2.0197 0.61153-3.3422 0.74666-4.5169 0.46151zm107.38-1.3163c-0.48917-0.14082-1.0818-0.38676-1.317-0.54657-0.23525-0.15982-0.46261-0.29065-0.50547-0.29065-0.0976 0-2.3566-1.0496-2.7288-1.2677-0.15126-0.0886-1.0908-0.58963-2.0883-1.1134-0.99743-0.52379-2.2728-1.2162-2.8342-1.5388-0.5613-0.32253-1.044-0.58644-1.0728-0.58644-0.0298 0-0.48447-0.26445-1.0128-0.58774-0.52833-0.32318-1.3539-0.80211-1.8346-1.0641-0.48072-0.26212-1.1732-0.68018-1.5388-0.92925-0.36581-0.2492-0.96153-0.62069-1.3242-0.82583-0.57246-0.32385-1.7533-1.0658-3.2974-2.0722-0.83708-0.54558-1.3561-1.0187-1.7583-1.6027-0.36083-0.52405-0.41061-0.68123-0.46484-1.4745-0.13415-1.9539 0.86566-3.6249 2.4981-4.1762 1.809-0.6109 4.8297-0.0137 7.7486 1.5346 2.672 1.4164 3.3092 1.8012 5.1506 3.1108 0.67333 0.47883 1.5458 1.0874 1.9387 1.3523 0.39277 0.26479 1.1101 0.77792 1.5937 1.14 0.48361 0.36204 1.275 0.93043 1.7586 1.263 0.48363 0.33262 1.1332 0.78802 1.4435 1.012 0.31025 0.22387 1.0276 0.73723 1.5938 1.1406 1.5131 1.078 1.7203 1.27 1.9631 1.8188 0.42846 0.96875 0.19747 2.7189-0.56126 4.2505-0.39484 0.79705-0.67234 1.1155-1.2142 1.3934-0.6406 0.32847-1.1529 0.34292-2.136 0.0601zm-65.552 0.0804c-0.21169-0.0207-0.90587-0.0869-1.5429-0.14835-2.0931-0.20183-4.067-0.70571-7.2051-1.84-1.208-0.43662-3.9644-2.0064-5.5406-3.1552-4.2026-3.0633-7.7949-7.5858-9.4365-11.88-1.4625-3.8261-2.1029-7.4359-2.1038-11.86-1e-3 -4.901 0.79982-9.755 2.2858-13.855 0.33972-0.93671 1.3453-3.2984 1.6382-3.8469 1.7194-3.2187 3.5507-5.7632 5.8916-8.1859 1.806-1.8691 7.0866-6.4562 7.7194-6.7057 0.12304-0.0484 0.29564-0.17428 0.38286-0.27936 0.36039-0.43431 3.6482-2.4525 5.0533-3.1019 1.5764-0.72855 2.3845-0.93817 3.6271-0.94068 1.6421-2e-3 2.4044 0.22432 3.4722 1.0367 0.98203 0.74727 1.4742 2.0329 1.4734 3.8492-1e-3 2.9132-0.98358 5.4928-2.8501 7.4844-0.71312 0.76087-1.7149 1.5319-3.056 2.3519-1.5736 0.96221-5.5243 4.7946-6.6225 6.4241-0.15161 0.22502-0.47588 0.67346-0.72051 0.99669-1.3918 1.8384-3.104 5.4015-3.6892 7.677-0.11636 0.45336-0.26444 0.94684-0.32881 1.0966-0.22205 0.51779-0.64173 2.9609-0.7687 4.4739-0.43096 5.1353 1.1109 9.9712 4.3396 13.611 2.7862 3.141 5.9748 4.872 10.344 5.6156 2.3537 0.40056 6.6626 0.20274 8.9579-0.41148 2.7134-0.72604 3.3927-0.97123 5.3204-1.9205 1.4186-0.6986 2.1269-1.0863 2.3669-1.296 0.0945-0.0822 0.32618-0.228 0.51532-0.32384 0.31885-0.1612 1.572-1.0856 3.1854-2.349 1.5674-1.2275 4.3445-4.2544 5.7768-6.2963 0.46451-0.66215 2.0697-3.4376 2.0697-3.5784 0-0.0344 0.11977-0.31885 0.26644-0.63255 1.6882-3.6143 2.5275-8.1558 2.2553-12.203-0.1042-1.5452-0.1075-1.56-0.51579-2.1606-1.1105-1.633-3.5121-3.7114-5.3687-4.6461-2.468-1.2425-5.6112-1.4895-8.6725-0.68154-0.60452 0.15965-1.2755 0.33358-1.491 0.38671-0.2156 0.053-0.53702 0.17222-0.71442 0.26477-0.17748 0.0926-0.37825 0.16855-0.44594 0.16907-0.44561 2e-3 -3.8053 1.7162-5.2284 2.667-1.9625 1.3112-2.9818 2.4007-3.8675 4.1334-0.43566 0.85239-0.60926 1.652-0.61388 2.8273-2e-3 1.3139 0.2754 2.385 1.0303 3.9321 0.61106 1.2524 0.68473 1.3487 1.6934 2.2133 1.4589 1.2505 2.6429 1.8581 2.8038 1.4388 0.07-0.18277-0.1954-1.3806-0.41394-1.8673-1.3409-2.9858-1.5959-3.7576-1.5987-4.8403-2e-3 -1.2072 0.24522-1.7896 1.1898-2.7892 0.71337-0.75499 0.98449-0.9572 1.7761-1.3245 1.769-0.8208 3.1729-1.0074 5.5164-0.73325 0.82755 0.0968 1.8168 0.27739 2.1983 0.40157 1.1938 0.38823 2.5488 1.1714 3.2856 1.8992 0.64065 0.63271 1.6395 1.9149 1.6395 2.1046 0 0.0481 0.0766 0.17175 0.17008 0.27539 0.29401 0.32484 0.91245 2.2392 1.0447 3.2335 0.15862 1.1903 0.0691 2.8264-0.21308 3.9049-0.48804 1.8637-0.54694 2.0691-0.6502 2.2667-0.0595 0.11344-0.29601 0.62673-0.52667 1.1406-0.23059 0.51383-0.66207 1.33-0.95937 1.8136-0.2973 0.48361-0.62107 1.0276-0.71951 1.2089-0.30458 0.56097-2.5532 2.7275-3.4214 3.2964-2.786 1.8258-5.2355 2.3992-10.277 2.4059-3.4592 2e-3 -5.4042-0.31719-6.9881-1.1563-1.3022-0.68981-2.6864-2.5289-4.1504-5.5141-0.91613-1.8682-1.0264-2.1088-1.4965-3.2634-0.16034-0.39293-0.35792-0.8628-0.44019-1.0442-1.0637-2.3484-1.5879-5.0943-1.3747-7.2001 0.21262-2.1022 0.91695-4.4073 1.9441-6.3645 0.59792-1.1394 1.8891-3.0588 2.8146-4.1842 1.1709-1.4236 3.4851-3.7814 4.6962-4.7846 0.26877-0.22272 0.78722-0.66853 1.1523-0.99095 0.7051-0.62284 1.6709-1.3313 2.732-2.0041 0.35628-0.22592 0.85098-0.56164 1.0992-0.74609 1.2063-0.89647 4.402-2.3052 6.8261-3.0091 1.9009-0.55196 4.736-0.83932 6.7046-0.67964 4.0623 0.3295 7.2798 1.3166 10.803 3.3138 2.1482 1.2178 4.9305 3.9173 6.5631 6.3676 1.179 1.7696 1.539 2.5431 1.9752 4.244 0.91191 3.5558 1.2207 6.9071 1.1232 12.191-0.0666 3.6153-0.22273 5.5149-0.57977 7.0603-0.23392 1.0124-1.0174 3.4042-1.2693 3.8743-0.11276 0.21078-0.20527 0.41355-0.20527 0.45077 0 0.14562-1.2725 2.4028-1.8492 3.2803-0.33512 0.50973-0.96357 1.3505-1.3969 1.8685-0.87319 1.0438-2.9156 3.1555-3.3067 3.4189-0.13792 0.0929-0.50991 0.41443-0.82638 0.7144-0.66311 0.62848-1.2986 1.0909-3.8868 2.8287-1.9663 1.3202-2.0701 1.3807-5.3307 3.1107-1.6717 0.88694-4.6106 2.0938-6.9284 2.8451-3.8716 1.255-6.0836 1.7623-10.053 2.3056-2.4292 0.33249-6.3285 0.48673-8.0785 0.31953zm-43.8-29.172c-4.3514-0.33766-8.3062-1.4639-10.084-2.8716-0.63538-0.50324-0.85259-1.0524-0.85259-2.1554 0-0.78776 0.0421-1.0041 0.28371-1.4473 0.88178-1.6203 3.8984-2.8988 8.3465-3.5373 1.3081-0.18784 6.6072-0.19174 8.4061-7e-3 1.972 0.20344 3.5099 0.51931 5.2184 1.0725 3.1678 1.0257 4.4751 2.0807 4.6289 3.7355 0.0979 1.0536-0.18138 1.7086-1.075 2.5168-1.9108 1.7292-5.6426 2.656-11.08 2.7519-1.3602 0.0233-3.0666-2e-3 -3.792-0.0587zm98.426-0.54189c-2.0451-0.18806-4.8934-1.8819-5.5923-3.3258-0.66039-1.3641 0.0751-2.8734 1.825-3.7444 2.0989-1.0449 4.76-1.9126 8.6584-2.8234 2.6612-0.62172 7.6048-1.28 11.541-1.5367 3.3323-0.21744 4.1979-0.10883 5.0133 0.62769 0.54287 0.49044 0.64816 0.68332 0.82716 1.5145 0.17909 0.8309 0.19104 2.9138 0.0207 3.4835-0.19907 0.6652-0.85165 1.3262-1.6504 1.6722-0.38114 0.1653-0.79223 0.3462-0.91315 0.40226-0.47709 0.22135-3.5207 1.1194-5.2208 1.5407-0.8614 0.2133-4.4071 0.97061-5.3307 1.1383-0.54408 0.0989-1.2118 0.2316-1.4838 0.2953-0.27208 0.0638-0.98922 0.18462-1.5937 0.26845-4.0038 0.55534-4.7302 0.61337-6.1001 0.48739zm-82.983-21.655c-1.0704-0.18714-3.9554-1.2552-5.5506-2.055-3.0781-1.5431-5.0248-2.7887-8.1884-5.2395-1.9241-1.4906-4.4966-4.2368-5.3415-5.7021-0.78718-1.3653-0.84739-1.5221-0.90009-2.3436-0.0707-1.0998 7e-3 -1.3423 0.50206-1.5488 1.0093-0.42168 4.2557 0.36871 9.0368 2.2002 0.66504 0.25483 1.0958 0.44211 2.8028 1.2194 1.638 0.74583 4.6343 2.4029 7.0893 3.9208 1.0463 0.6469 1.9922 1.4314 3.2994 2.7365 1.0362 1.0345 1.3452 1.4212 1.7022 2.1303 0.39652 0.78766 0.4358 0.94228 0.43185 1.7036-2e-3 1.3073-0.58514 2.2266-1.7466 2.7761-0.58772 0.27804-0.77815 0.31257-1.6534 0.30129-0.54408-7e-3 -1.2118-0.0518-1.4838-0.0992zm70.233-3.4616c-1.0132-0.24851-1.4117-0.4716-2.1351-1.195-0.89457-0.89452-1.1486-1.5523-0.94714-2.4523 0.0732-0.3275 0.24054-0.77761 0.37121-1.0004 0.26212-0.44562 3.3914-3.6489 3.565-3.6489 0.0598 0 0.17611-0.0828 0.25914-0.18417 0.0828-0.10143 0.69491-0.58514 1.3599-1.0751 1.0629-0.78318 1.629-1.1813 2.6928-1.894 0.4767-0.31921 2.6608-1.7307 3.4622-2.2373 0.42319-0.26742 1.0493-0.68493 1.3915-0.92762 0.34215-0.24256 0.87799-0.58965 1.1907-0.77102 0.31256-0.1814 0.63558-0.39199 0.71739-0.46809 0.70725-0.65764 2.6072-0.83332 3.6798-0.34025 0.75676 0.34788 2.1422 1.6979 2.445 2.3825 0.11909 0.2691 0.24221 0.7753 0.27406 1.1249 0.0499 0.55322 0.0137 0.73229-0.29133 1.3806-0.29696 0.6347-0.58803 0.97914-1.9654 2.3263-2.8497 2.7871-5.6143 5.0171-8.2136 6.6255-3.4204 2.1164-5.8539 2.8457-7.8566 2.3544zm-54.928-11.104c-0.31721-0.0852-0.77825-0.25815-1.0242-0.38354-0.59118-0.3016-4.126-3.8245-5.2346-5.217-3.5654-4.4784-5.216-8.8913-5.0568-13.519 0.0697-2.0198 0.28967-3.3524 0.82294-4.9882 0.37079-1.1369 0.446-1.2764 0.82205-1.5271l0.41395-0.27573 0.72317 0.30727c0.80315 0.34136 2.2612 1.6235 3.0315 2.6657 0.23528 0.3182 0.63564 0.82096 0.89013 1.1173 0.25481 0.29632 0.59118 0.75332 0.74837 1.0153 0.15726 0.26211 0.60689 0.99567 0.99934 1.6304 2.1861 3.5356 4.0445 7.581 5.0998 11.101 0.33345 1.1128 0.47036 1.6438 0.92007 3.5721 0.0565 0.24189 0.1617 0.83577 0.23392 1.3199 0.16719 1.1207-0.0233 1.8798-0.64021 2.5764-0.66034 0.74364-1.5266 0.93432-2.7492 0.60509zm28.594-0.74816c-1.1953-0.30293-2.143-1.2202-2.6593-2.5738-1.0478-2.7474-0.54987-10.967 1.0169-16.787 0.81513-3.0275 1.969-5.8111 2.8645-6.9105 0.69099-0.84822 1.2024-1.0593 2.5514-1.0532 0.59003 2e-3 1.2954 0.0657 1.5674 0.13998 1.0486 0.28669 1.9322 1.1154 2.4918 2.3364 0.27806 0.60668 0.30161 0.77475 0.3426 2.4646 0.0872 3.569-0.79188 10.622-1.8079 14.508-0.83036 3.176-1.4683 4.801-2.3917 6.0922-1.0932 1.5288-2.496 2.1578-3.9757 1.7827z" style="fill: rgb(248, 246, 246);"/>
    </g>
  </g>
</svg>