<?xml version="1.0" encoding="utf-8"?>
<svg viewBox="307.342 194.349 259.183 121.469" xmlns="http://www.w3.org/2000/svg">
  <defs>
    <clipPath id="ap">
      <rect x="-21.686" y="3.8474" width="1117.6" height="572.84" fill="#f2f2f2" stroke="#FFF" stroke-width="2.0439"/>
    </clipPath>
  </defs>
  <g transform="matrix(0.40956, 0, 0, 0.401226, 213.170319, 194.349411)" style="">
    <g transform="translate(21.686 -3.8474)" clip-path="url(#ap)"/>
  </g>
  <g transform="matrix(0.140786, 0, 0, 0.129174, 226.507492, 194.22023)" style="">
    <g id="Camada_1">
      <rect y="1" fill="#59A3C3" width="1840.975" height="936.451" style="" x="574.165"/>
      <rect x="1746.395" y="954.65" fill="#AEADB3" width="0.573" height="300.267"/>
      <ellipse fill="#B2786B" cx="1617.412" cy="942.643" rx="1.807" ry="5.192"/>
      <ellipse fill="#62665A" cx="633.183" cy="1550.699" rx="1.304" ry="2.146"/>
      <ellipse fill="#62665A" cx="978.506" cy="1876.081" rx="1.304" ry="2.146"/>
      <path fill="#A0B380" d="M 883.057 1353.51 C 874.391 1352.308 881.751 1346.678 881.486 1348.4 C 881.217 1350.151 881.809 1351.904 883.058 1353.497 L 883.057 1353.51 Z"/>
      <path fill="#A0B380" d="M 627.784 1302.046 C 627.784 1302.046 626.847 1293.773 626.847 1295.964 C 626.847 1298.193 627.189 1300.276 627.784 1302.046 Z"/>
      <ellipse fill="#62665A" cx="575.469" cy="1291.606" rx="1.304" ry="2.146"/>
      <ellipse fill="#62665A" cx="855.583" cy="1677.914" rx="1.304" ry="2.146"/>
      <ellipse fill="#62665A" cx="1883.047" cy="1485.669" rx="1.305" ry="2.146"/>
      <path fill="#A0B380" d="M1733.315,1322.729l-2.337-0.801c-0.04-0.521-0.022-0.92-0.003-1.497c0.095-2.892,1.685-5.403,2.646-5.375 c0.961,0.028,1.297,2.427,1.203,5.318c-0.096,2.892-0.076,5.459-1.037,5.431c-0.564-0.017-1.609-0.705-2.191-2.346 L1733.315,1322.729z"/>
      <line fill="none" stroke="#594E41" stroke-miterlimit="10" x1="1405.674" y1="1011.999" x2="1663.028" y2="1011.999"/>
      <line fill="none" stroke="#594E41" stroke-width="0.9099" stroke-miterlimit="10" x1="1427.812" y1="1030.186" x2="1640.891" y2="1030.186"/>
      <line fill="none" stroke="#594E41" stroke-width="0.8399" stroke-miterlimit="10" x1="1443.583" y1="1050.999" x2="1625.119" y2="1050.999"/>
      <path fill="#76AADB" d="M913.271,186.027c-8.07-27.338-33.347-47.295-63.3-47.295c-11.56,0-22.42,2.979-31.87,8.201 c-8.616-42.343-46.06-74.207-90.946-74.207c-51.259,0-92.813,41.554-92.813,92.813c0,6.63,0.701,13.095,2.022,19.331 c-26.547,10.714-42.776,25.036-42.776,40.773c0,33.194,72.169,60.104,161.195,60.104c45.489,0,86.57-7.028,115.878-18.328 c3.403-1.123,6.682-2.513,9.815-4.149c1.73-0.803,3.408-1.622,5.028-2.458c5.867,3.32,12.641,5.225,19.863,5.225 c22.31,0,40.395-18.085,40.395-40.395C945.761,206.04,931.795,189.703,913.271,186.027z"/>
      <path fill="#91BFE5" d="M1549.27,447.053c-8.07-27.338-33.348-47.295-63.3-47.295c-11.56,0-22.42,2.979-31.87,8.201 c-8.616-42.343-46.06-74.207-90.946-74.207c-51.259,0-92.813,41.554-92.813,92.813c0,6.63,0.701,13.095,2.022,19.331 c-26.547,10.714-42.776,25.036-42.776,40.773c0,33.194,72.169,60.104,161.195,60.104c45.489,0,86.57-7.028,115.878-18.328 c3.402-1.123,6.682-2.513,9.814-4.149c1.73-0.803,3.408-1.622,5.027-2.458c5.867,3.32,12.641,5.225,19.863,5.225 c22.31,0,40.395-18.085,40.395-40.395C1581.76,467.065,1567.793,450.729,1549.27,447.053z"/>
      <path fill="#76AADB" d="M2121.984,186.027c-8.07-27.338-33.348-47.295-63.299-47.295c-11.561,0-22.42,2.979-31.87,8.201 c-8.616-42.343-46.06-74.207-90.946-74.207c-51.26,0-92.813,41.554-92.813,92.813c0,6.63,0.7,13.095,2.021,19.331 c-26.547,10.714-42.775,25.036-42.775,40.773c0,33.194,72.169,60.104,161.194,60.104c45.489,0,86.569-7.028,115.878-18.328 c3.402-1.123,6.682-2.513,9.814-4.149c1.73-0.803,3.408-1.622,5.027-2.458c5.867,3.32,12.641,5.225,19.863,5.225 c22.311,0,40.395-18.085,40.395-40.395C2154.475,206.04,2140.508,189.703,2121.984,186.027z"/>
      <path fill="#91BFE5" d="M2315.083,737.941c-8.07-27.338-33.348-47.295-63.299-47.295c-11.561,0-22.42,2.979-31.87,8.201 c-8.616-42.343-46.06-74.207-90.946-74.207c-51.26,0-92.813,41.554-92.813,92.813c0,6.63,0.7,13.095,2.021,19.331 c-26.547,10.714-42.775,25.036-42.775,40.773c0,33.194,72.169,60.104,161.194,60.104c45.489,0,86.569-7.028,115.878-18.328 c3.402-1.123,6.682-2.513,9.814-4.149c1.73-0.803,3.408-1.622,5.027-2.458c5.867,3.32,12.641,5.225,19.863,5.225 c22.311,0,40.395-18.085,40.395-40.395C2347.573,757.954,2333.606,741.617,2315.083,737.941z"/>
      <path fill="#76AADB" d="M1089.357,758.968c-8.07-27.338-33.348-47.295-63.299-47.295c-11.561,0-22.42,2.979-31.87,8.201 c-8.616-42.343-46.06-74.207-90.946-74.207c-51.26,0-92.813,41.554-92.813,92.813c0,6.63,0.7,13.095,2.021,19.331 c-26.547,10.714-42.775,25.036-42.775,40.773c0,33.194,72.169,60.104,161.194,60.104c45.489,0,86.569-7.028,115.878-18.328 c3.402-1.123,6.682-2.513,9.814-4.149c1.73-0.803,3.408-1.622,5.027-2.458c5.867,3.32,12.641,5.225,19.863,5.225 c22.311,0,40.395-18.085,40.395-40.395C1121.847,778.98,1107.88,762.644,1089.357,758.968z"/>
    </g>
    <g id="Camada_2"/>
  </g>
</svg>